<?xml version="1.0" encoding="utf-8"?>
<!-- Generator: Adobe Illustrator 16.0.0, SVG Export Plug-In . SVG Version: 6.00 Build 0)  -->
<!DOCTYPE svg PUBLIC "-//W3C//DTD SVG 1.1//EN" "http://www.w3.org/Graphics/SVG/1.1/DTD/svg11.dtd">
<svg version="1.1" id="Layer_1" xmlns="http://www.w3.org/2000/svg" xmlns:xlink="http://www.w3.org/1999/xlink" x="0px" y="0px"
	 width="185px" height="188px" viewBox="0 0 185 188" enable-background="new 0 0 185 188" xml:space="preserve">
<g>
	<g>
		<path fill="#4E4E4E" d="M65.667,16.862h7.361v9.194c-1.999,0.684-4.196,1.026-6.592,1.026c-2.629,0-4.661-0.762-6.096-2.287
			c-1.436-1.524-2.152-3.699-2.152-6.522c0-2.753,0.785-4.896,2.356-6.429s3.772-2.298,6.604-2.298c1.073,0,2.086,0.101,3.039,0.303
			c0.953,0.203,1.783,0.459,2.491,0.771l-1.459,3.617c-1.229-0.607-2.578-0.91-4.048-0.91c-1.346,0-2.386,0.438-3.121,1.312
			s-1.103,2.125-1.103,3.751c0,1.595,0.332,2.81,0.998,3.646c0.664,0.836,1.623,1.254,2.875,1.254c0.685,0,1.314-0.066,1.891-0.199
			v-2.671h-3.045V16.862z"/>
		<path fill="#4E4E4E" d="M86.633,26.849H76.505V9.792h10.128v3.698h-5.519v2.684h5.109v3.699h-5.109v3.22h5.519V26.849z"/>
		<path fill="#4E4E4E" d="M96.468,16.862h7.361v9.194c-1.999,0.684-4.196,1.026-6.592,1.026c-2.629,0-4.661-0.762-6.096-2.287
			s-2.152-3.699-2.152-6.522c0-2.753,0.785-4.896,2.356-6.429s3.772-2.298,6.604-2.298c1.073,0,2.086,0.101,3.039,0.303
			c0.953,0.203,1.783,0.459,2.491,0.771l-1.458,3.617c-1.229-0.607-2.579-0.91-4.049-0.91c-1.346,0-2.386,0.438-3.121,1.312
			s-1.103,2.125-1.103,3.751c0,1.595,0.332,2.81,0.997,3.646c0.665,0.836,1.624,1.254,2.876,1.254c0.685,0,1.314-0.066,1.891-0.199
			v-2.671h-3.045V16.862z"/>
		<path fill="#4E4E4E" d="M111.845,26.849h-4.539V9.792h10.081v3.698h-5.542v3.255h5.11v3.698h-5.11V26.849z"/>
		<path fill="#4E4E4E" d="M126.3,27.083c-2.201,0-3.91-0.585-5.128-1.756c-1.217-1.17-1.825-2.837-1.825-4.999
			c0-2.232,0.563-3.945,1.691-5.14c1.128-1.194,2.738-1.791,4.83-1.791c1.991,0,3.529,0.52,4.614,1.558
			c1.086,1.039,1.628,2.534,1.628,4.486v2.03h-8.155c0.031,0.739,0.302,1.318,0.811,1.738c0.51,0.42,1.204,0.63,2.083,0.63
			c0.801,0,1.538-0.076,2.211-0.228c0.673-0.151,1.401-0.41,2.188-0.775v3.278c-0.716,0.366-1.455,0.618-2.217,0.758
			C128.268,27.013,127.357,27.083,126.3,27.083z M126.032,16.5c-0.537,0-0.986,0.169-1.348,0.507
			c-0.362,0.339-0.574,0.87-0.636,1.593h3.92c-0.016-0.638-0.196-1.147-0.543-1.528C127.08,16.691,126.615,16.5,126.032,16.5z"/>
		<path fill="#4E4E4E" d="M144.897,22.789c0,1.416-0.482,2.485-1.447,3.208c-0.964,0.724-2.349,1.085-4.153,1.085
			c-0.979,0-1.831-0.052-2.555-0.158c-0.724-0.104-1.462-0.297-2.217-0.577v-3.652c0.708,0.311,1.483,0.568,2.327,0.77
			c0.845,0.202,1.597,0.303,2.258,0.303c0.988,0,1.482-0.226,1.482-0.677c0-0.233-0.139-0.441-0.415-0.624
			c-0.276-0.183-1.079-0.539-2.408-1.067c-1.214-0.498-2.062-1.063-2.544-1.698c-0.482-0.634-0.724-1.437-0.724-2.409
			c0-1.229,0.475-2.186,1.424-2.87s2.29-1.027,4.024-1.027c0.871,0,1.69,0.096,2.456,0.286c0.767,0.19,1.562,0.468,2.387,0.834
			l-1.237,2.94c-0.606-0.272-1.248-0.504-1.925-0.694s-1.229-0.286-1.657-0.286c-0.746,0-1.12,0.183-1.12,0.548
			c0,0.226,0.131,0.418,0.392,0.578c0.26,0.16,1.013,0.484,2.258,0.974c0.925,0.381,1.615,0.754,2.07,1.12s0.789,0.795,1.003,1.29
			C144.791,21.48,144.897,22.082,144.897,22.789z"/>
		<path fill="#4E4E4E" d="M153.904,23.478c0.614,0,1.35-0.152,2.205-0.455v3.325c-0.614,0.264-1.199,0.453-1.756,0.566
			c-0.556,0.112-1.207,0.169-1.954,0.169c-1.532,0-2.637-0.375-3.313-1.125s-1.015-1.904-1.015-3.459v-5.449h-1.599v-1.855
			l2.03-1.435l1.178-2.777h2.987v2.648h3.243v3.418h-3.243v5.146C152.668,23.05,153.08,23.478,153.904,23.478z"/>
		<path fill="#4E4E4E" d="M69.587,55.522H58.024v-2.077l4.398-4.422c1.299-1.33,2.16-2.273,2.584-2.83
			c0.425-0.556,0.733-1.079,0.928-1.569c0.194-0.49,0.292-1.015,0.292-1.575c0-0.77-0.231-1.377-0.694-1.82
			s-1.103-0.665-1.919-0.665c-0.653,0-1.285,0.121-1.896,0.362c-0.61,0.241-1.316,0.677-2.117,1.307l-1.481-1.808
			c0.949-0.801,1.87-1.369,2.765-1.704s1.848-0.501,2.858-0.501c1.587,0,2.858,0.414,3.815,1.243
			c0.957,0.828,1.436,1.942,1.436,3.342c0,0.77-0.139,1.501-0.415,2.193c-0.275,0.692-0.7,1.406-1.271,2.141
			c-0.571,0.735-1.522,1.729-2.853,2.981l-2.963,2.87v0.117h8.097V55.522z"/>
		<path fill="#4E4E4E" d="M83.226,46.994c0,2.963-0.477,5.165-1.43,6.604c-0.952,1.439-2.409,2.159-4.369,2.159
			c-1.897,0-3.337-0.743-4.316-2.229c-0.98-1.486-1.47-3.664-1.47-6.534c0-3.01,0.476-5.229,1.429-6.656
			c0.953-1.427,2.405-2.141,4.357-2.141c1.906,0,3.349,0.747,4.329,2.24C82.735,41.93,83.226,44.116,83.226,46.994z M74.417,46.994
			c0,2.326,0.239,3.986,0.718,4.982c0.478,0.996,1.242,1.493,2.292,1.493c1.051,0,1.818-0.505,2.305-1.517
			c0.485-1.011,0.729-2.664,0.729-4.958c0-2.287-0.244-3.941-0.729-4.964c-0.486-1.022-1.254-1.534-2.305-1.534
			c-1.05,0-1.814,0.501-2.292,1.505C74.656,43.003,74.417,44.668,74.417,46.994z"/>
		<path fill="#4E4E4E" d="M93.353,55.522h-2.741V44.509c0-1.314,0.03-2.357,0.093-3.127c-0.179,0.187-0.398,0.393-0.659,0.618
			s-1.134,0.941-2.619,2.147l-1.377-1.738l5.017-3.944h2.287V55.522z"/>
		<path fill="#4E4E4E" d="M98.987,48.254c0-6.674,2.719-10.011,8.155-10.011c0.855,0,1.579,0.066,2.17,0.199v2.287
			c-0.591-0.171-1.275-0.257-2.053-0.257c-1.828,0-3.201,0.49-4.119,1.47c-0.917,0.98-1.415,2.551-1.493,4.713h0.141
			c0.365-0.63,0.879-1.118,1.54-1.464c0.661-0.346,1.438-0.519,2.333-0.519c1.548,0,2.754,0.475,3.617,1.423
			c0.863,0.949,1.295,2.236,1.295,3.862c0,1.789-0.5,3.203-1.5,4.241c-0.999,1.039-2.362,1.558-4.089,1.558
			c-1.221,0-2.283-0.293-3.186-0.881c-0.902-0.587-1.597-1.442-2.082-2.566C99.23,51.184,98.987,49.833,98.987,48.254z
			 M104.938,53.492c0.941,0,1.666-0.303,2.176-0.91c0.51-0.606,0.765-1.474,0.765-2.602c0-0.98-0.239-1.75-0.718-2.31
			c-0.478-0.56-1.195-0.84-2.152-0.84c-0.591,0-1.136,0.126-1.634,0.379c-0.497,0.253-0.891,0.599-1.179,1.038
			c-0.287,0.44-0.431,0.889-0.431,1.348c0,1.097,0.298,2.021,0.893,2.771C103.252,53.117,104.013,53.492,104.938,53.492z"/>
		<path fill="#4E4E4E" d="M131.282,43.622c0,1.781-0.583,3.146-1.75,4.095c-1.167,0.949-2.828,1.423-4.982,1.423h-1.773v6.382
			h-2.788V38.465h4.912c2.131,0,3.728,0.436,4.789,1.307S131.282,41.926,131.282,43.622z M122.776,46.795h1.482
			c1.431,0,2.481-0.249,3.149-0.747c0.669-0.498,1.004-1.276,1.004-2.333c0-0.98-0.3-1.711-0.898-2.193
			c-0.6-0.482-1.532-0.724-2.801-0.724h-1.937V46.795z"/>
		<path fill="#4E4E4E" d="M140.942,42.385c0.553,0,1.007,0.039,1.365,0.117l-0.269,2.555c-0.389-0.094-0.793-0.14-1.213-0.14
			c-1.097,0-1.986,0.358-2.667,1.073c-0.68,0.716-1.021,1.645-1.021,2.789v6.744h-2.742V42.619h2.147l0.361,2.275h0.141
			c0.428-0.77,0.985-1.38,1.674-1.832S140.149,42.385,140.942,42.385z"/>
		<path fill="#4E4E4E" d="M152.773,55.522l-0.549-1.797h-0.094c-0.622,0.786-1.248,1.32-1.878,1.604
			c-0.63,0.284-1.439,0.426-2.427,0.426c-1.268,0-2.258-0.342-2.969-1.027c-0.713-0.685-1.068-1.653-1.068-2.905
			c0-1.33,0.494-2.333,1.481-3.01c0.988-0.677,2.493-1.046,4.516-1.108l2.229-0.07v-0.688c0-0.824-0.192-1.44-0.577-1.849
			c-0.386-0.408-0.982-0.612-1.791-0.612c-0.661,0-1.296,0.097-1.902,0.292s-1.19,0.424-1.75,0.688l-0.887-1.96
			c0.7-0.366,1.467-0.644,2.299-0.834c0.832-0.19,1.617-0.286,2.356-0.286c1.642,0,2.88,0.358,3.716,1.073
			c0.836,0.716,1.255,1.84,1.255,3.372v8.692H152.773z M148.689,53.656c0.996,0,1.795-0.278,2.397-0.834
			c0.603-0.556,0.904-1.336,0.904-2.339v-1.12l-1.657,0.07c-1.291,0.047-2.23,0.262-2.817,0.647
			c-0.587,0.385-0.881,0.974-0.881,1.768c0,0.576,0.172,1.021,0.514,1.336S148.005,53.656,148.689,53.656z"/>
		<path fill="#4E4E4E" d="M169.912,55.522h-2.754v-7.934c0-0.996-0.2-1.739-0.601-2.229c-0.4-0.49-1.036-0.735-1.907-0.735
			c-1.151,0-1.998,0.344-2.538,1.032c-0.541,0.688-0.811,1.842-0.811,3.459v6.405h-2.742V37.368h2.742v4.609
			c0,0.739-0.047,1.528-0.141,2.368h0.176c0.373-0.622,0.892-1.104,1.558-1.447c0.664-0.342,1.44-0.513,2.327-0.513
			c3.127,0,4.69,1.575,4.69,4.725V55.522z"/>
		<path fill="#4E4E4E" d="M181.801,55.522l-0.549-1.797h-0.093c-0.623,0.786-1.249,1.32-1.879,1.604
			c-0.63,0.284-1.438,0.426-2.427,0.426c-1.268,0-2.258-0.342-2.969-1.027c-0.712-0.685-1.067-1.653-1.067-2.905
			c0-1.33,0.493-2.333,1.481-3.01c0.987-0.677,2.493-1.046,4.515-1.108l2.229-0.07v-0.688c0-0.824-0.192-1.44-0.577-1.849
			c-0.385-0.408-0.982-0.612-1.791-0.612c-0.661,0-1.295,0.097-1.902,0.292c-0.606,0.194-1.189,0.424-1.75,0.688l-0.887-1.96
			c0.7-0.366,1.467-0.644,2.299-0.834c0.832-0.19,1.618-0.286,2.357-0.286c1.641,0,2.879,0.358,3.716,1.073
			c0.835,0.716,1.254,1.84,1.254,3.372v8.692H181.801z M177.717,53.656c0.996,0,1.795-0.278,2.398-0.834
			c0.603-0.556,0.903-1.336,0.903-2.339v-1.12l-1.656,0.07c-1.291,0.047-2.23,0.262-2.817,0.647
			c-0.588,0.385-0.881,0.974-0.881,1.768c0,0.576,0.171,1.021,0.513,1.336C176.52,53.498,177.033,53.656,177.717,53.656z"/>
	</g>
	<g>
		<path fill="#FDC324" d="M26.43,59.595L3.853,51.819c0,0-1.107-0.429-1.61-1.008c-0.481-0.553-0.481-1.725-0.481-1.725V16.845
			c0,0-0.001-1.023,0.857-1.612c1.049-0.72,2.287-0.046,2.287-0.046l21.524,9.961V59.595z"/>
		<g>
			<image overflow="visible" width="90" height="111" xlink:href="8FCB29E5D930794E.png"  transform="matrix(1 0 0 1 -27 -14.5)">
			</image>
		</g>
		<path fill="#0F79BE" d="M26.43,59.595c0,0-2.995-17.126-17.091-18.053V4.439c0,0,15.432-1.781,17.091,20.708V59.595z"/>
		<path fill="#45A848" d="M26.43,59.595l22.577-7.775c0,0,1.107-0.429,1.61-1.008c0.48-0.553,0.48-1.725,0.48-1.725V16.845
			c0,0,0.001-1.023-0.856-1.612c-1.05-0.72-2.287-0.046-2.287-0.046L26.43,25.147V59.595z"/>
		<g>
			<image overflow="visible" width="90" height="114" xlink:href="8FCB29E5D9307952.png"  transform="matrix(1 0 0 1 -10 -17.5)">
			</image>
		</g>
		<path fill="#EB1A4F" d="M26.43,59.595c0,0,2.995-17.126,17.091-18.053V4.439c0,0-15.432-1.781-17.091,20.708V59.595z"/>
	</g>
</g>
<g>
	<g>
		<path fill="#4E4E4E" d="M65.667,79.862h7.362v9.193c-1.999,0.685-4.196,1.027-6.592,1.027c-2.629,0-4.661-0.762-6.096-2.287
			s-2.152-3.699-2.152-6.522c0-2.753,0.785-4.896,2.356-6.429s3.772-2.298,6.604-2.298c1.074,0,2.086,0.101,3.04,0.303
			c0.953,0.202,1.783,0.459,2.491,0.77l-1.458,3.617c-1.229-0.606-2.578-0.91-4.048-0.91c-1.346,0-2.386,0.437-3.121,1.312
			c-0.735,0.875-1.103,2.125-1.103,3.751c0,1.594,0.333,2.81,0.998,3.646c0.665,0.836,1.624,1.254,2.875,1.254
			c0.685,0,1.314-0.066,1.89-0.198V83.42h-3.045V79.862z"/>
		<path fill="#4E4E4E" d="M86.632,89.849H76.505V72.792h10.127v3.698h-5.519v2.684h5.11v3.698h-5.11v3.22h5.519V89.849z"/>
		<path fill="#4E4E4E" d="M96.468,79.862h7.361v9.193c-1.999,0.685-4.196,1.027-6.592,1.027c-2.629,0-4.661-0.762-6.096-2.287
			c-1.435-1.524-2.153-3.699-2.153-6.522c0-2.753,0.786-4.896,2.357-6.429s3.772-2.298,6.604-2.298c1.073,0,2.086,0.101,3.039,0.303
			s1.783,0.459,2.491,0.77l-1.458,3.617c-1.229-0.606-2.579-0.91-4.049-0.91c-1.346,0-2.386,0.437-3.121,1.312
			c-0.735,0.875-1.103,2.125-1.103,3.751c0,1.594,0.332,2.81,0.997,3.646s1.624,1.254,2.876,1.254c0.685,0,1.314-0.066,1.891-0.198
			V83.42h-3.045V79.862z"/>
		<path fill="#4E4E4E" d="M111.845,89.849h-4.539V72.792h10.081v3.698h-5.542v3.255h5.11v3.698h-5.11V89.849z"/>
		<path fill="#4E4E4E" d="M126.3,90.082c-2.201,0-3.91-0.585-5.128-1.756c-1.217-1.17-1.825-2.837-1.825-5
			c0-2.232,0.563-3.945,1.691-5.139s2.738-1.791,4.83-1.791c1.991,0,3.529,0.52,4.614,1.558c1.086,1.039,1.628,2.534,1.628,4.486
			v2.03h-8.155c0.031,0.739,0.302,1.318,0.811,1.738c0.51,0.42,1.204,0.63,2.083,0.63c0.801,0,1.538-0.076,2.211-0.228
			c0.673-0.151,1.401-0.41,2.188-0.776v3.279c-0.716,0.366-1.455,0.618-2.217,0.758C128.268,90.012,127.357,90.082,126.3,90.082z
			 M126.032,79.5c-0.537,0-0.986,0.169-1.348,0.507c-0.362,0.338-0.574,0.869-0.636,1.593h3.92
			c-0.016-0.638-0.196-1.147-0.543-1.528C127.08,79.69,126.615,79.5,126.032,79.5z"/>
		<path fill="#4E4E4E" d="M144.897,85.789c0,1.416-0.482,2.485-1.447,3.208c-0.964,0.723-2.349,1.085-4.153,1.085
			c-0.979,0-1.831-0.052-2.555-0.158c-0.724-0.104-1.462-0.297-2.217-0.577v-3.652c0.708,0.311,1.483,0.568,2.327,0.77
			c0.845,0.202,1.597,0.303,2.258,0.303c0.988,0,1.482-0.226,1.482-0.677c0-0.233-0.139-0.441-0.415-0.624s-1.079-0.539-2.408-1.067
			c-1.214-0.498-2.062-1.064-2.544-1.698s-0.724-1.437-0.724-2.409c0-1.229,0.475-2.186,1.424-2.87s2.29-1.027,4.024-1.027
			c0.871,0,1.69,0.096,2.456,0.286c0.767,0.19,1.562,0.468,2.387,0.834l-1.237,2.94c-0.606-0.272-1.248-0.503-1.925-0.694
			s-1.229-0.286-1.657-0.286c-0.746,0-1.12,0.183-1.12,0.548c0,0.226,0.131,0.418,0.392,0.578c0.26,0.16,1.013,0.484,2.258,0.974
			c0.925,0.381,1.615,0.754,2.07,1.12s0.789,0.795,1.003,1.29C144.791,84.48,144.897,85.081,144.897,85.789z"/>
		<path fill="#4E4E4E" d="M153.904,86.477c0.614,0,1.35-0.152,2.205-0.455v3.325c-0.614,0.264-1.199,0.453-1.756,0.566
			c-0.556,0.112-1.207,0.169-1.954,0.169c-1.532,0-2.637-0.375-3.313-1.126c-0.677-0.75-1.015-1.903-1.015-3.459v-5.449h-1.599
			v-1.855l2.03-1.435l1.178-2.777h2.987v2.648h3.243v3.418h-3.243v5.145C152.668,86.049,153.08,86.477,153.904,86.477z"/>
		<path fill="#4E4E4E" d="M69.586,118.521H58.024v-2.076l4.398-4.422c1.299-1.33,2.16-2.273,2.584-2.83
			c0.424-0.556,0.733-1.079,0.928-1.568c0.194-0.49,0.292-1.016,0.292-1.575c0-0.771-0.231-1.377-0.694-1.82
			s-1.103-0.665-1.919-0.665c-0.653,0-1.285,0.121-1.896,0.361c-0.61,0.241-1.316,0.677-2.117,1.307l-1.482-1.808
			c0.949-0.802,1.871-1.369,2.765-1.704c0.895-0.334,1.847-0.501,2.858-0.501c1.587,0,2.858,0.414,3.815,1.242
			c0.957,0.828,1.435,1.942,1.435,3.343c0,0.77-0.138,1.501-0.415,2.193c-0.276,0.692-0.7,1.405-1.271,2.141
			c-0.572,0.735-1.522,1.729-2.853,2.981l-2.963,2.87v0.116h8.097V118.521z"/>
		<path fill="#4E4E4E" d="M83.226,109.993c0,2.964-0.477,5.165-1.43,6.604c-0.953,1.438-2.409,2.158-4.369,2.158
			c-1.898,0-3.337-0.742-4.317-2.229c-0.98-1.485-1.47-3.663-1.47-6.533c0-3.01,0.476-5.229,1.429-6.656
			c0.953-1.427,2.406-2.141,4.358-2.141c1.906,0,3.349,0.746,4.329,2.24C82.735,104.93,83.226,107.115,83.226,109.993z
			 M74.417,109.993c0,2.325,0.239,3.986,0.718,4.981c0.478,0.996,1.243,1.494,2.292,1.494c1.05,0,1.818-0.506,2.305-1.518
			c0.485-1.011,0.729-2.663,0.729-4.958c0-2.287-0.244-3.941-0.729-4.964c-0.487-1.023-1.254-1.535-2.305-1.535
			c-1.05,0-1.814,0.502-2.292,1.506C74.656,106.003,74.417,107.667,74.417,109.993z"/>
		<path fill="#4E4E4E" d="M93.353,118.521h-2.742v-11.014c0-1.314,0.031-2.356,0.093-3.127c-0.179,0.188-0.399,0.394-0.66,0.619
			c-0.26,0.226-1.133,0.94-2.619,2.146l-1.376-1.738l5.017-3.943h2.287V118.521z"/>
		<path fill="#4E4E4E" d="M98.987,111.253c0-6.674,2.719-10.01,8.155-10.01c0.855,0,1.579,0.065,2.17,0.198v2.286
			c-0.591-0.171-1.275-0.257-2.053-0.257c-1.828,0-3.201,0.49-4.119,1.471c-0.917,0.979-1.415,2.551-1.493,4.713h0.141
			c0.365-0.63,0.879-1.117,1.54-1.464c0.661-0.346,1.438-0.52,2.333-0.52c1.548,0,2.754,0.475,3.617,1.424s1.295,2.236,1.295,3.862
			c0,1.788-0.5,3.202-1.5,4.24c-0.999,1.039-2.362,1.558-4.089,1.558c-1.221,0-2.283-0.293-3.186-0.881
			c-0.902-0.587-1.597-1.442-2.082-2.566C99.23,114.184,98.987,112.832,98.987,111.253z M104.938,116.491
			c0.941,0,1.666-0.303,2.176-0.909c0.51-0.607,0.765-1.475,0.765-2.603c0-0.979-0.239-1.75-0.718-2.31
			c-0.478-0.561-1.195-0.84-2.152-0.84c-0.591,0-1.136,0.126-1.634,0.379c-0.497,0.253-0.891,0.599-1.179,1.038
			c-0.287,0.439-0.431,0.889-0.431,1.348c0,1.097,0.298,2.021,0.893,2.771C103.252,116.116,104.013,116.491,104.938,116.491z"/>
		<path fill="#4E4E4E" d="M131.282,106.621c0,1.781-0.583,3.146-1.75,4.096c-1.167,0.948-2.828,1.423-4.982,1.423h-1.773v6.382
			h-2.788v-17.057h4.912c2.131,0,3.728,0.436,4.789,1.307S131.282,104.926,131.282,106.621z M122.776,109.795h1.482
			c1.431,0,2.481-0.249,3.149-0.747c0.669-0.498,1.004-1.275,1.004-2.333c0-0.98-0.3-1.711-0.898-2.193
			c-0.6-0.482-1.532-0.724-2.801-0.724h-1.937V109.795z"/>
		<path fill="#4E4E4E" d="M140.942,105.385c0.553,0,1.007,0.039,1.365,0.116l-0.269,2.556c-0.389-0.094-0.793-0.141-1.213-0.141
			c-1.097,0-1.986,0.358-2.667,1.074c-0.68,0.715-1.021,1.645-1.021,2.788v6.743h-2.742v-12.903h2.147l0.361,2.274h0.141
			c0.428-0.77,0.985-1.38,1.674-1.831S140.149,105.385,140.942,105.385z"/>
		<path fill="#4E4E4E" d="M152.773,118.521l-0.549-1.797h-0.094c-0.622,0.786-1.248,1.321-1.878,1.604
			c-0.63,0.284-1.439,0.426-2.427,0.426c-1.268,0-2.258-0.342-2.969-1.026c-0.713-0.685-1.068-1.653-1.068-2.905
			c0-1.33,0.494-2.333,1.481-3.01c0.988-0.677,2.493-1.047,4.516-1.108l2.229-0.07v-0.688c0-0.824-0.192-1.44-0.577-1.85
			c-0.386-0.407-0.982-0.612-1.791-0.612c-0.661,0-1.296,0.098-1.902,0.292s-1.19,0.424-1.75,0.688l-0.887-1.96
			c0.7-0.366,1.467-0.644,2.299-0.835c0.832-0.189,1.617-0.285,2.356-0.285c1.642,0,2.88,0.357,3.716,1.073s1.255,1.84,1.255,3.372
			v8.691H152.773z M148.689,116.655c0.996,0,1.795-0.278,2.397-0.835c0.603-0.556,0.904-1.335,0.904-2.339v-1.12l-1.657,0.07
			c-1.291,0.047-2.23,0.263-2.817,0.647s-0.881,0.975-0.881,1.768c0,0.575,0.172,1.021,0.514,1.336
			C147.491,116.497,148.005,116.655,148.689,116.655z"/>
		<path fill="#4E4E4E" d="M169.912,118.521h-2.754v-7.934c0-0.995-0.2-1.738-0.601-2.229c-0.4-0.489-1.036-0.734-1.907-0.734
			c-1.151,0-1.998,0.344-2.538,1.032c-0.541,0.688-0.811,1.842-0.811,3.459v6.405h-2.742v-18.153h2.742v4.608
			c0,0.738-0.047,1.528-0.141,2.368h0.176c0.373-0.622,0.892-1.104,1.558-1.446c0.664-0.343,1.44-0.514,2.327-0.514
			c3.127,0,4.69,1.575,4.69,4.725V118.521z"/>
		<path fill="#4E4E4E" d="M181.801,118.521l-0.549-1.797h-0.093c-0.623,0.786-1.249,1.321-1.879,1.604
			c-0.63,0.284-1.438,0.426-2.427,0.426c-1.268,0-2.258-0.342-2.969-1.026c-0.712-0.685-1.067-1.653-1.067-2.905
			c0-1.33,0.493-2.333,1.481-3.01c0.987-0.677,2.493-1.047,4.515-1.108l2.229-0.07v-0.688c0-0.824-0.192-1.44-0.577-1.85
			c-0.385-0.407-0.982-0.612-1.791-0.612c-0.661,0-1.295,0.098-1.902,0.292c-0.606,0.194-1.189,0.424-1.75,0.688l-0.887-1.96
			c0.7-0.366,1.467-0.644,2.299-0.835c0.832-0.189,1.618-0.285,2.357-0.285c1.641,0,2.879,0.357,3.716,1.073
			c0.835,0.716,1.254,1.84,1.254,3.372v8.691H181.801z M177.717,116.655c0.996,0,1.795-0.278,2.398-0.835
			c0.603-0.556,0.903-1.335,0.903-2.339v-1.12l-1.656,0.07c-1.291,0.047-2.23,0.263-2.817,0.647
			c-0.588,0.385-0.881,0.975-0.881,1.768c0,0.575,0.171,1.021,0.513,1.336C176.52,116.497,177.033,116.655,177.717,116.655z"/>
	</g>
	<g>
		<path fill="#C1C1C1" d="M26.429,122.595l-22.577-7.775c0,0-1.107-0.43-1.61-1.008c-0.481-0.554-0.481-1.726-0.481-1.726V79.845
			c0,0-0.001-1.023,0.857-1.612c1.049-0.72,2.287-0.047,2.287-0.047l21.524,9.961V122.595z"/>
		<g>
			<image overflow="visible" width="90" height="111" xlink:href="8FCB29E5D9307955.png"  transform="matrix(1 0 0 1 -27 48.5)">
			</image>
		</g>
		<path fill="#787878" d="M26.429,122.595c0,0-2.995-17.127-17.091-18.054V67.438c0,0,15.432-1.781,17.091,20.708V122.595z"/>
		<path fill="#9E9E9E" d="M26.429,122.595l22.577-7.775c0,0,1.107-0.43,1.61-1.008c0.481-0.554,0.481-1.726,0.481-1.726V79.845
			c0,0,0.001-1.023-0.857-1.612c-1.049-0.72-2.287-0.047-2.287-0.047l-21.524,9.961V122.595z"/>
		<g>
			<image overflow="visible" width="90" height="114" xlink:href="8FCB29E5D9307956.png"  transform="matrix(1 0 0 1 -10 45.5)">
			</image>
		</g>
		<path fill="#585858" d="M26.429,122.595c0,0,2.995-17.127,17.091-18.054V67.438c0,0-15.432-1.781-17.091,20.708V122.595z"/>
	</g>
</g>
<g>
	<g>
		<path fill="#E5E5E5" d="M65.667,142.862h7.361v9.194c-1.999,0.684-4.196,1.026-6.592,1.026c-2.629,0-4.661-0.763-6.096-2.287
			c-1.436-1.524-2.152-3.698-2.152-6.521c0-2.754,0.785-4.896,2.356-6.429s3.772-2.299,6.604-2.299c1.073,0,2.086,0.102,3.039,0.304
			s1.783,0.459,2.491,0.77l-1.459,3.617c-1.229-0.606-2.578-0.91-4.048-0.91c-1.346,0-2.386,0.438-3.121,1.312
			s-1.103,2.126-1.103,3.751c0,1.595,0.332,2.811,0.998,3.646c0.664,0.836,1.623,1.254,2.875,1.254c0.685,0,1.314-0.066,1.891-0.198
			v-2.672h-3.045V142.862z"/>
		<path fill="#E5E5E5" d="M86.633,152.85H76.505v-17.058h10.128v3.699h-5.519v2.683h5.109v3.699h-5.109v3.22h5.519V152.85z"/>
		<path fill="#E5E5E5" d="M96.468,142.862h7.361v9.194c-1.999,0.684-4.196,1.026-6.592,1.026c-2.629,0-4.661-0.763-6.096-2.287
			s-2.152-3.698-2.152-6.521c0-2.754,0.785-4.896,2.356-6.429s3.772-2.299,6.604-2.299c1.073,0,2.086,0.102,3.039,0.304
			s1.783,0.459,2.491,0.77l-1.458,3.617c-1.229-0.606-2.579-0.91-4.049-0.91c-1.346,0-2.386,0.438-3.121,1.312
			s-1.103,2.126-1.103,3.751c0,1.595,0.332,2.811,0.997,3.646s1.624,1.254,2.876,1.254c0.685,0,1.314-0.066,1.891-0.198v-2.672
			h-3.045V142.862z"/>
		<path fill="#E5E5E5" d="M111.845,152.85h-4.539v-17.058h10.081v3.699h-5.542v3.255h5.11v3.698h-5.11V152.85z"/>
		<path fill="#E5E5E5" d="M126.3,153.083c-2.201,0-3.91-0.585-5.128-1.756c-1.217-1.171-1.825-2.837-1.825-5
			c0-2.231,0.563-3.945,1.691-5.139c1.128-1.194,2.738-1.791,4.83-1.791c1.991,0,3.529,0.52,4.614,1.558
			c1.086,1.038,1.628,2.533,1.628,4.486v2.029h-8.155c0.031,0.739,0.302,1.318,0.811,1.738c0.51,0.421,1.204,0.631,2.083,0.631
			c0.801,0,1.538-0.076,2.211-0.228c0.673-0.152,1.401-0.411,2.188-0.776v3.278c-0.716,0.366-1.455,0.618-2.217,0.759
			C128.268,153.013,127.357,153.083,126.3,153.083z M126.032,142.501c-0.537,0-0.986,0.169-1.348,0.507
			c-0.362,0.339-0.574,0.87-0.636,1.593h3.92c-0.016-0.638-0.196-1.146-0.543-1.528C127.08,142.691,126.615,142.501,126.032,142.501
			z"/>
		<path fill="#E5E5E5" d="M144.897,148.789c0,1.416-0.482,2.485-1.447,3.209c-0.964,0.724-2.349,1.085-4.153,1.085
			c-0.979,0-1.831-0.053-2.555-0.158c-0.724-0.104-1.462-0.297-2.217-0.577v-3.651c0.708,0.311,1.483,0.567,2.327,0.77
			c0.845,0.202,1.597,0.304,2.258,0.304c0.988,0,1.482-0.226,1.482-0.677c0-0.233-0.139-0.441-0.415-0.624s-1.079-0.539-2.408-1.067
			c-1.214-0.498-2.062-1.063-2.544-1.698c-0.482-0.634-0.724-1.437-0.724-2.409c0-1.229,0.475-2.186,1.424-2.87
			s2.29-1.026,4.024-1.026c0.871,0,1.69,0.096,2.456,0.286c0.767,0.19,1.562,0.468,2.387,0.834l-1.237,2.94
			c-0.606-0.272-1.248-0.504-1.925-0.694s-1.229-0.286-1.657-0.286c-0.746,0-1.12,0.183-1.12,0.548c0,0.226,0.131,0.419,0.392,0.578
			c0.26,0.159,1.013,0.484,2.258,0.974c0.925,0.382,1.615,0.755,2.07,1.12c0.455,0.366,0.789,0.796,1.003,1.29
			C144.791,147.48,144.897,148.082,144.897,148.789z"/>
		<path fill="#E5E5E5" d="M153.904,149.478c0.614,0,1.35-0.151,2.205-0.455v3.325c-0.614,0.265-1.199,0.453-1.756,0.566
			c-0.556,0.112-1.207,0.169-1.954,0.169c-1.532,0-2.637-0.375-3.313-1.126s-1.015-1.903-1.015-3.459v-5.449h-1.599v-1.854
			l2.03-1.436l1.178-2.776h2.987v2.648h3.243v3.418h-3.243v5.146C152.668,149.05,153.08,149.478,153.904,149.478z"/>
		<path fill="#E5E5E5" d="M69.587,181.522H58.024v-2.076l4.398-4.422c1.299-1.33,2.16-2.273,2.584-2.83
			c0.425-0.556,0.733-1.079,0.928-1.568c0.194-0.49,0.292-1.016,0.292-1.575c0-0.771-0.231-1.377-0.694-1.82
			s-1.103-0.665-1.919-0.665c-0.653,0-1.285,0.12-1.896,0.361c-0.61,0.241-1.316,0.677-2.117,1.307l-1.481-1.808
			c0.949-0.802,1.87-1.369,2.765-1.704c0.895-0.334,1.848-0.501,2.858-0.501c1.587,0,2.858,0.414,3.815,1.242
			s1.436,1.942,1.436,3.343c0,0.77-0.139,1.501-0.415,2.193c-0.275,0.692-0.7,1.405-1.271,2.141s-1.522,1.729-2.853,2.981
			l-2.963,2.87v0.116h8.097V181.522z"/>
		<path fill="#E5E5E5" d="M83.226,172.994c0,2.963-0.477,5.164-1.43,6.604c-0.952,1.438-2.409,2.158-4.369,2.158
			c-1.897,0-3.337-0.743-4.316-2.229c-0.98-1.485-1.47-3.663-1.47-6.533c0-3.011,0.476-5.229,1.429-6.656
			c0.953-1.427,2.405-2.141,4.357-2.141c1.906,0,3.349,0.746,4.329,2.24C82.735,167.931,83.226,170.116,83.226,172.994z
			 M74.417,172.994c0,2.325,0.239,3.986,0.718,4.981c0.478,0.996,1.242,1.493,2.292,1.493c1.051,0,1.818-0.505,2.305-1.517
			c0.485-1.011,0.729-2.664,0.729-4.958c0-2.287-0.244-3.941-0.729-4.965c-0.486-1.022-1.254-1.534-2.305-1.534
			c-1.05,0-1.814,0.502-2.292,1.505C74.656,169.004,74.417,170.668,74.417,172.994z"/>
		<path fill="#E5E5E5" d="M93.353,181.522h-2.741v-11.014c0-1.314,0.03-2.356,0.093-3.127c-0.179,0.187-0.398,0.393-0.659,0.618
			s-1.134,0.941-2.619,2.147l-1.377-1.738l5.017-3.943h2.287V181.522z"/>
		<path fill="#E5E5E5" d="M98.987,174.254c0-6.674,2.719-10.011,8.155-10.011c0.855,0,1.579,0.066,2.17,0.199v2.286
			c-0.591-0.171-1.275-0.257-2.053-0.257c-1.828,0-3.201,0.49-4.119,1.471c-0.917,0.979-1.415,2.551-1.493,4.713h0.141
			c0.365-0.63,0.879-1.117,1.54-1.464c0.661-0.346,1.438-0.52,2.333-0.52c1.548,0,2.754,0.475,3.617,1.424s1.295,2.236,1.295,3.861
			c0,1.789-0.5,3.203-1.5,4.241c-0.999,1.039-2.362,1.558-4.089,1.558c-1.221,0-2.283-0.293-3.186-0.881
			c-0.902-0.587-1.597-1.442-2.082-2.566C99.23,177.185,98.987,175.833,98.987,174.254z M104.938,179.492
			c0.941,0,1.666-0.303,2.176-0.909c0.51-0.607,0.765-1.475,0.765-2.603c0-0.979-0.239-1.75-0.718-2.31
			c-0.478-0.561-1.195-0.84-2.152-0.84c-0.591,0-1.136,0.126-1.634,0.379c-0.497,0.253-0.891,0.599-1.179,1.038
			c-0.287,0.439-0.431,0.889-0.431,1.348c0,1.097,0.298,2.021,0.893,2.771C103.252,179.117,104.013,179.492,104.938,179.492z"/>
		<path fill="#E5E5E5" d="M131.282,169.622c0,1.781-0.583,3.146-1.75,4.096c-1.167,0.948-2.828,1.423-4.982,1.423h-1.773v6.382
			h-2.788v-17.057h4.912c2.131,0,3.728,0.436,4.789,1.307S131.282,167.927,131.282,169.622z M122.776,172.796h1.482
			c1.431,0,2.481-0.249,3.149-0.747c0.669-0.498,1.004-1.275,1.004-2.333c0-0.98-0.3-1.712-0.898-2.193
			c-0.6-0.482-1.532-0.724-2.801-0.724h-1.937V172.796z"/>
		<path fill="#E5E5E5" d="M140.942,168.386c0.553,0,1.007,0.039,1.365,0.116l-0.269,2.556c-0.389-0.094-0.793-0.141-1.213-0.141
			c-1.097,0-1.986,0.358-2.667,1.073c-0.68,0.716-1.021,1.646-1.021,2.789v6.743h-2.742v-12.903h2.147l0.361,2.274h0.141
			c0.428-0.77,0.985-1.38,1.674-1.831S140.149,168.386,140.942,168.386z"/>
		<path fill="#E5E5E5" d="M152.773,181.522l-0.549-1.797h-0.094c-0.622,0.786-1.248,1.32-1.878,1.604s-1.439,0.426-2.427,0.426
			c-1.268,0-2.258-0.342-2.969-1.026c-0.713-0.685-1.068-1.653-1.068-2.905c0-1.33,0.494-2.333,1.481-3.01
			c0.988-0.677,2.493-1.047,4.516-1.108l2.229-0.07v-0.688c0-0.824-0.192-1.44-0.577-1.85c-0.386-0.408-0.982-0.612-1.791-0.612
			c-0.661,0-1.296,0.098-1.902,0.292s-1.19,0.424-1.75,0.688l-0.887-1.96c0.7-0.366,1.467-0.644,2.299-0.835
			c0.832-0.19,1.617-0.285,2.356-0.285c1.642,0,2.88,0.357,3.716,1.073s1.255,1.839,1.255,3.372v8.691H152.773z M148.689,179.656
			c0.996,0,1.795-0.278,2.397-0.835c0.603-0.556,0.904-1.336,0.904-2.339v-1.12l-1.657,0.07c-1.291,0.047-2.23,0.262-2.817,0.647
			c-0.587,0.385-0.881,0.974-0.881,1.768c0,0.575,0.172,1.021,0.514,1.336C147.491,179.498,148.005,179.656,148.689,179.656z"/>
		<path fill="#E5E5E5" d="M169.912,181.522h-2.754v-7.934c0-0.995-0.2-1.738-0.601-2.229s-1.036-0.734-1.907-0.734
			c-1.151,0-1.998,0.344-2.538,1.032c-0.541,0.688-0.811,1.842-0.811,3.459v6.405h-2.742v-18.154h2.742v4.609
			c0,0.738-0.047,1.528-0.141,2.368h0.176c0.373-0.622,0.892-1.104,1.558-1.447c0.664-0.342,1.44-0.513,2.327-0.513
			c3.127,0,4.69,1.575,4.69,4.725V181.522z"/>
		<path fill="#E5E5E5" d="M181.801,181.522l-0.549-1.797h-0.093c-0.623,0.786-1.249,1.32-1.879,1.604s-1.438,0.426-2.427,0.426
			c-1.268,0-2.258-0.342-2.969-1.026c-0.712-0.685-1.067-1.653-1.067-2.905c0-1.33,0.493-2.333,1.481-3.01
			c0.987-0.677,2.493-1.047,4.515-1.108l2.229-0.07v-0.688c0-0.824-0.192-1.44-0.577-1.85c-0.385-0.408-0.982-0.612-1.791-0.612
			c-0.661,0-1.295,0.098-1.902,0.292c-0.606,0.194-1.189,0.424-1.75,0.688l-0.887-1.96c0.7-0.366,1.467-0.644,2.299-0.835
			c0.832-0.19,1.618-0.285,2.357-0.285c1.641,0,2.879,0.357,3.716,1.073c0.835,0.716,1.254,1.839,1.254,3.372v8.691H181.801z
			 M177.717,179.656c0.996,0,1.795-0.278,2.398-0.835c0.603-0.556,0.903-1.336,0.903-2.339v-1.12l-1.656,0.07
			c-1.291,0.047-2.23,0.262-2.817,0.647c-0.588,0.385-0.881,0.974-0.881,1.768c0,0.575,0.171,1.021,0.513,1.336
			C176.52,179.498,177.033,179.656,177.717,179.656z"/>
	</g>
	<g>
		<path fill="#FDC324" d="M26.43,185.595l-22.577-7.775c0,0-1.107-0.429-1.61-1.008c-0.481-0.553-0.481-1.725-0.481-1.725v-32.241
			c0,0-0.001-1.023,0.857-1.612c1.049-0.721,2.287-0.047,2.287-0.047l21.524,9.961V185.595z"/>
		<g>
			<image overflow="visible" width="90" height="111" xlink:href="8FCB29E5D9307954.png"  transform="matrix(1 0 0 1 -27 111.5)">
			</image>
		</g>
		<path fill="#0F79BE" d="M26.43,185.595c0,0-2.995-17.126-17.091-18.053v-37.103c0,0,15.432-1.781,17.091,20.708V185.595z"/>
		<path fill="#45A848" d="M26.43,185.595l22.577-7.775c0,0,1.107-0.429,1.61-1.008c0.48-0.553,0.48-1.725,0.48-1.725v-32.241
			c0,0,0.001-1.023-0.856-1.612c-1.05-0.721-2.287-0.047-2.287-0.047l-21.524,9.961V185.595z"/>
		<g>
			<image overflow="visible" width="90" height="114" xlink:href="8FCB29E5D9307953.png"  transform="matrix(1 0 0 1 -10 108.5)">
			</image>
		</g>
		<path fill="#EB1A4F" d="M26.43,185.595c0,0,2.995-17.126,17.091-18.053v-37.103c0,0-15.432-1.781-17.091,20.708V185.595z"/>
	</g>
</g>
</svg>
