<?xml version="1.0" encoding="utf-8"?>
<!-- Generator: Adobe Illustrator 16.0.0, SVG Export Plug-In . SVG Version: 6.00 Build 0)  -->
<!DOCTYPE svg PUBLIC "-//W3C//DTD SVG 1.1//EN" "http://www.w3.org/Graphics/SVG/1.1/DTD/svg11.dtd">
<svg version="1.1" id="Layer_1" xmlns="http://www.w3.org/2000/svg" xmlns:xlink="http://www.w3.org/1999/xlink" x="0px" y="0px"
	 width="185px" height="188px" viewBox="0 0 185 188" enable-background="new 0 0 185 188" xml:space="preserve">
<g>
	<path fill="#FDC324" d="M26.43,59.595L3.853,51.819c0,0-1.107-0.429-1.61-1.008c-0.481-0.553-0.481-1.725-0.481-1.725V16.845
		c0,0-0.001-1.022,0.857-1.612c1.049-0.72,2.287-0.046,2.287-0.046l21.524,9.961V59.595z"/>
	<g>
	</g>
	<path fill="#0F79BE" d="M26.43,59.595c0,0-2.995-17.126-17.091-18.053V4.439c0,0,15.432-1.781,17.091,20.708V59.595z"/>
	<path fill="#45A848" d="M26.43,59.595l22.577-7.775c0,0,1.107-0.429,1.61-1.008c0.48-0.553,0.48-1.725,0.48-1.725V16.845
		c0,0,0.001-1.022-0.856-1.612c-1.05-0.72-2.287-0.046-2.287-0.046l-21.524,9.96V59.595z"/>
	<g>
	</g>
	<path fill="#EB1A4F" d="M26.43,59.595c0,0,2.995-17.126,17.091-18.053V4.439c0,0-15.432-1.781-17.091,20.708V59.595z"/>
</g>
<g>
	<path fill="#C1C1C1" d="M26.429,122.595L3.852,114.82c0,0-1.107-0.43-1.61-1.008c-0.481-0.555-0.481-1.727-0.481-1.727V79.845
		c0,0-0.001-1.022,0.857-1.612c1.049-0.72,2.287-0.047,2.287-0.047l21.524,9.961V122.595z"/>
	<g>
	</g>
	<path fill="#787878" d="M26.429,122.595c0,0-2.995-17.127-17.091-18.054V67.438c0,0,15.432-1.781,17.091,20.708V122.595z"/>
	<path fill="#9E9E9E" d="M26.429,122.595l22.577-7.774c0,0,1.107-0.43,1.61-1.008c0.481-0.555,0.481-1.727,0.481-1.727V79.845
		c0,0,0.001-1.022-0.857-1.612c-1.049-0.72-2.287-0.047-2.287-0.047l-21.524,9.961V122.595z"/>
	<g>
	</g>
	<path fill="#585858" d="M26.429,122.595c0,0,2.995-17.127,17.091-18.054V67.438c0,0-15.432-1.781-17.091,20.708V122.595z"/>
</g>
<g>
	<path fill="#FDC324" d="M26.43,185.595L3.853,177.82c0,0-1.107-0.43-1.61-1.008c-0.481-0.554-0.481-1.726-0.481-1.726v-32.241
		c0,0-0.001-1.022,0.857-1.611c1.049-0.721,2.287-0.047,2.287-0.047l21.524,9.961V185.595z"/>
	<g>
	</g>
	<path fill="#0F79BE" d="M26.43,185.595c0,0-2.995-17.126-17.091-18.053v-37.103c0,0,15.432-1.781,17.091,20.707V185.595z"/>
	<path fill="#45A848" d="M26.43,185.595l22.577-7.774c0,0,1.107-0.43,1.61-1.008c0.48-0.554,0.48-1.726,0.48-1.726v-32.241
		c0,0,0.001-1.022-0.856-1.611c-1.05-0.721-2.287-0.047-2.287-0.047l-21.524,9.961V185.595z"/>
	<g>
	</g>
	<path fill="#EB1A4F" d="M26.43,185.595c0,0,2.995-17.126,17.091-18.053v-37.103c0,0-15.432-1.781-17.091,20.707V185.595z"/>
</g>
<text transform="matrix(1 0 0 1 -52 328.2041)"><tspan x="0" y="0" font-family="'ProductSans-Regular'" font-size="12">GEGfest</tspan><tspan x="0" y="14.4" font-family="'ProductSans-Regular'" font-size="12">Praha 2017</tspan></text>
<g>
	<path fill="#4E4E4E" d="M78.066,17.928c0,2.397-0.711,4.307-2.133,5.729c-1.615,1.694-3.717,2.541-6.305,2.541
		c-2.479,0-4.584-0.859-6.316-2.577c-1.734-1.718-2.602-3.848-2.602-6.389s0.867-4.67,2.602-6.388
		c1.732-1.718,3.838-2.577,6.316-2.577c1.23,0,2.404,0.24,3.523,0.719s2.014,1.119,2.686,1.918l-1.512,1.51
		c-1.135-1.358-2.701-2.038-4.697-2.038c-1.807,0-3.369,0.635-4.688,1.906s-1.977,2.921-1.977,4.95c0,2.03,0.658,3.68,1.977,4.95
		s2.881,1.906,4.688,1.906c1.918,0,3.516-0.639,4.793-1.917c0.832-0.831,1.311-1.99,1.439-3.476h-6.232v-2.062h8.318
		C78.025,17.082,78.066,17.513,78.066,17.928z"/>
	<path fill="#4E4E4E" d="M90.771,10.761h-7.814v5.441h7.047v2.062h-7.047v5.442h7.814v2.109h-10.02V8.651h10.02V10.761z"/>
	<path fill="#4E4E4E" d="M109.781,17.928c0,2.397-0.711,4.307-2.133,5.729c-1.615,1.694-3.717,2.541-6.305,2.541
		c-2.479,0-4.584-0.859-6.318-2.577c-1.732-1.718-2.6-3.848-2.6-6.389s0.867-4.67,2.6-6.388c1.734-1.718,3.84-2.577,6.318-2.577
		c1.23,0,2.404,0.24,3.523,0.719c1.117,0.479,2.014,1.119,2.684,1.918l-1.51,1.51c-1.135-1.358-2.701-2.038-4.697-2.038
		c-1.807,0-3.369,0.635-4.688,1.906s-1.979,2.921-1.979,4.95c0,2.03,0.66,3.68,1.979,4.95s2.881,1.906,4.688,1.906
		c1.916,0,3.516-0.639,4.793-1.917c0.832-0.831,1.311-1.99,1.439-3.476h-6.232v-2.062h8.318
		C109.74,17.082,109.781,17.513,109.781,17.928z"/>
	<path fill="#4E4E4E" d="M117.451,8.555c0.703,0,1.295,0.104,1.773,0.312l-0.766,1.894c-0.256-0.128-0.592-0.192-1.008-0.192
		c-0.574,0-1.047,0.172-1.414,0.516s-0.551,0.843-0.551,1.498v1.486h3.068v2.014h-3.068v9.732h-2.207v-9.732h-2.205v-2.014h2.205
		v-1.558c0-1.199,0.385-2.158,1.152-2.876C115.197,8.915,116.205,8.555,117.451,8.555z"/>
	<path fill="#4E4E4E" d="M125.266,26.199c-1.773,0-3.215-0.591-4.326-1.774s-1.666-2.677-1.666-4.483c0-1.71,0.539-3.18,1.617-4.411
		c1.08-1.23,2.457-1.846,4.137-1.846c1.74,0,3.135,0.568,4.182,1.702c1.047,1.135,1.57,2.653,1.57,4.555l-0.023,0.408h-9.277
		c0.064,1.183,0.459,2.118,1.188,2.805c0.727,0.687,1.578,1.031,2.553,1.031c1.582,0,2.652-0.671,3.211-2.014l1.967,0.815
		c-0.385,0.911-1.016,1.674-1.895,2.289C127.623,25.891,126.545,26.199,125.266,26.199z M128.43,18.527
		c-0.047-0.671-0.355-1.31-0.922-1.917c-0.568-0.607-1.41-0.911-2.529-0.911c-0.814,0-1.521,0.256-2.121,0.767
		c-0.6,0.512-1.012,1.199-1.234,2.062H128.43z"/>
	<path fill="#4E4E4E" d="M137.275,26.199c-1.311,0-2.393-0.32-3.248-0.959c-0.855-0.639-1.482-1.438-1.881-2.397l1.965-0.815
		c0.623,1.471,1.686,2.206,3.189,2.206c0.686,0,1.25-0.152,1.689-0.456c0.439-0.303,0.658-0.703,0.658-1.199
		c0-0.767-0.535-1.286-1.605-1.558l-2.373-0.575c-0.752-0.192-1.463-0.555-2.133-1.091c-0.672-0.535-1.008-1.258-1.008-2.169
		c0-1.039,0.459-1.882,1.379-2.529c0.918-0.647,2.01-0.971,3.271-0.971c1.039,0,1.967,0.236,2.781,0.708s1.398,1.147,1.75,2.025
		l-1.918,0.791c-0.432-1.039-1.326-1.558-2.686-1.558c-0.654,0-1.205,0.136-1.652,0.408c-0.449,0.272-0.672,0.639-0.672,1.103
		c0,0.671,0.52,1.126,1.559,1.366l2.324,0.552c1.104,0.255,1.918,0.695,2.445,1.318c0.527,0.623,0.791,1.327,0.791,2.109
		c0,1.055-0.432,1.934-1.295,2.637C139.746,25.847,138.635,26.199,137.275,26.199z"/>
	<path fill="#4E4E4E" d="M148.783,26.007c-1.232,0-2.17-0.328-2.818-0.983c-0.646-0.655-0.971-1.582-0.971-2.781v-6.161h-2.061
		v-2.014h2.061v-3.596h2.205v3.596h2.877v2.014h-2.877v5.993c0,1.279,0.529,1.918,1.584,1.918c0.398,0,0.734-0.064,1.006-0.192
		l0.768,1.894C150.076,25.903,149.486,26.007,148.783,26.007z"/>
	<path fill="#4E4E4E" d="M63.756,54.581h-2.205V37.417h5.848c1.455,0,2.713,0.483,3.775,1.45s1.596,2.186,1.596,3.656
		s-0.533,2.689-1.596,3.656s-2.32,1.45-3.775,1.45h-3.643V54.581z M63.756,45.52h3.691c0.926,0,1.67-0.312,2.229-0.935
		c0.561-0.624,0.84-1.311,0.84-2.062s-0.279-1.438-0.84-2.062c-0.559-0.624-1.303-0.935-2.229-0.935h-3.691V45.52z"/>
	<path fill="#4E4E4E" d="M76.893,54.581h-2.207V42.835h2.111v1.917h0.096c0.223-0.639,0.682-1.166,1.377-1.582
		c0.695-0.415,1.371-0.623,2.025-0.623c0.656,0,1.207,0.096,1.654,0.288l-0.838,2.062c-0.289-0.112-0.68-0.168-1.176-0.168
		c-0.799,0-1.506,0.316-2.121,0.947s-0.922,1.458-0.922,2.481V54.581z"/>
	<path fill="#4E4E4E" d="M86.625,54.965c-1.248,0-2.291-0.36-3.129-1.079c-0.84-0.719-1.258-1.669-1.258-2.853
		c0-1.278,0.494-2.281,1.484-3.008c0.992-0.727,2.215-1.091,3.668-1.091c1.295,0,2.357,0.24,3.189,0.719v-0.335
		c0-0.863-0.297-1.554-0.887-2.074c-0.592-0.519-1.318-0.779-2.182-0.779c-0.641,0-1.219,0.152-1.738,0.456
		c-0.52,0.304-0.875,0.719-1.066,1.247l-2.014-0.863c0.271-0.703,0.807-1.354,1.605-1.954c0.799-0.599,1.854-0.899,3.164-0.899
		c1.502,0,2.748,0.44,3.74,1.319c0.99,0.879,1.486,2.118,1.486,3.715v7.096H90.58v-1.63h-0.096
		C89.605,54.293,88.318,54.965,86.625,54.965z M86.984,52.951c0.91,0,1.738-0.339,2.48-1.019c0.742-0.679,1.115-1.482,1.115-2.409
		c-0.623-0.511-1.559-0.767-2.805-0.767c-1.072,0-1.879,0.232-2.422,0.695c-0.543,0.464-0.814,1.007-0.814,1.63
		c0,0.576,0.248,1.031,0.742,1.367C85.777,52.783,86.344,52.951,86.984,52.951z"/>
	<path fill="#4E4E4E" d="M97.387,37.417v5.417l-0.096,1.63h0.096c0.32-0.559,0.824-1.034,1.51-1.426
		c0.688-0.391,1.424-0.587,2.207-0.587c1.453,0,2.564,0.448,3.332,1.343c0.766,0.895,1.15,2.094,1.15,3.596v7.191h-2.205v-6.856
		c0-2.173-0.969-3.26-2.9-3.26c-0.912,0-1.654,0.364-2.23,1.091c-0.574,0.728-0.863,1.57-0.863,2.529v6.496h-2.205V37.417H97.387z"
		/>
	<path fill="#4E4E4E" d="M111.77,54.965c-1.246,0-2.289-0.36-3.127-1.079c-0.84-0.719-1.26-1.669-1.26-2.853
		c0-1.278,0.496-2.281,1.486-3.008c0.992-0.727,2.215-1.091,3.668-1.091c1.295,0,2.357,0.24,3.189,0.719v-0.335
		c0-0.863-0.297-1.554-0.889-2.074c-0.59-0.519-1.318-0.779-2.18-0.779c-0.641,0-1.219,0.152-1.738,0.456
		c-0.52,0.304-0.875,0.719-1.066,1.247l-2.014-0.863c0.271-0.703,0.807-1.354,1.605-1.954c0.799-0.599,1.854-0.899,3.164-0.899
		c1.502,0,2.748,0.44,3.74,1.319c0.99,0.879,1.486,2.118,1.486,3.715v7.096h-2.109v-1.63h-0.098
		C114.75,54.293,113.465,54.965,111.77,54.965z M112.131,52.951c0.91,0,1.736-0.339,2.48-1.019c0.742-0.679,1.115-1.482,1.115-2.409
		c-0.625-0.511-1.559-0.767-2.805-0.767c-1.072,0-1.879,0.232-2.422,0.695c-0.543,0.464-0.814,1.007-0.814,1.63
		c0,0.576,0.246,1.031,0.742,1.367C110.924,52.783,111.49,52.951,112.131,52.951z"/>
	<path fill="#4E4E4E" d="M135.67,54.581h-10.451v-2.206c3.131-3.148,5.137-5.202,6.016-6.161c0.783-0.878,1.311-1.546,1.582-2.001
		s0.408-1.019,0.408-1.69c0-0.687-0.271-1.294-0.814-1.822c-0.545-0.528-1.271-0.792-2.182-0.792c-0.832,0-1.502,0.244-2.014,0.731
		c-0.512,0.488-0.84,1.011-0.982,1.57l-2.014-0.815c0.271-0.863,0.838-1.678,1.701-2.445s1.982-1.151,3.355-1.151
		c1.52,0,2.766,0.464,3.74,1.391s1.463,2.038,1.463,3.332c0,1.598-0.871,3.308-2.613,5.13l-4.795,4.818h7.6V54.581z"/>
	<path fill="#4E4E4E" d="M149.141,52.496c-1.213,1.646-2.805,2.469-4.77,2.469s-3.557-0.823-4.77-2.469
		c-1.215-1.646-1.822-3.684-1.822-6.113c0-2.445,0.607-4.486,1.822-6.125c1.213-1.638,2.805-2.457,4.77-2.457
		s3.557,0.819,4.77,2.457c1.215,1.639,1.822,3.68,1.822,6.125C150.963,48.812,150.355,50.85,149.141,52.496z M144.371,52.855
		c1.311,0,2.361-0.615,3.152-1.846c0.791-1.23,1.188-2.772,1.188-4.626c0-1.87-0.396-3.416-1.188-4.639s-1.842-1.834-3.152-1.834
		c-1.326,0-2.381,0.611-3.164,1.834s-1.176,2.769-1.176,4.639c0,1.854,0.393,3.396,1.176,4.626
		C141.99,52.24,143.045,52.855,144.371,52.855z"/>
	<path fill="#4E4E4E" d="M158.969,54.581h-2.205V40.917l-3.188,1.391l-0.84-1.87l4.818-2.253h1.414V54.581z"/>
	<path fill="#4E4E4E" d="M164.604,54.965l-1.967-1.007l7.6-13.664h-8.295l0.049-2.109h10.57v2.253L164.604,54.965z"/>
</g>
<g>
	<path fill="#4E4E4E" d="M76.58,81.312c0,2.397-0.711,4.307-2.133,5.729c-1.615,1.694-3.717,2.541-6.305,2.541
		c-2.479,0-4.584-0.859-6.316-2.577c-1.734-1.718-2.602-3.848-2.602-6.389s0.867-4.67,2.602-6.388
		c1.732-1.718,3.838-2.577,6.316-2.577c1.23,0,2.404,0.24,3.523,0.719s2.014,1.119,2.686,1.918l-1.512,1.51
		c-1.135-1.358-2.701-2.038-4.697-2.038c-1.807,0-3.369,0.635-4.688,1.906s-1.977,2.921-1.977,4.95c0,2.03,0.658,3.68,1.977,4.95
		s2.881,1.906,4.688,1.906c1.918,0,3.516-0.639,4.793-1.917c0.832-0.831,1.311-1.99,1.439-3.476h-6.232v-2.062h8.318
		C76.539,80.465,76.58,80.896,76.58,81.312z"/>
	<path fill="#4E4E4E" d="M89.285,74.144h-7.814v5.441h7.047v2.062h-7.047v5.442h7.814v2.109h-10.02V72.035h10.02V74.144z"/>
	<path fill="#4E4E4E" d="M108.295,81.312c0,2.397-0.711,4.307-2.133,5.729c-1.615,1.694-3.717,2.541-6.305,2.541
		c-2.479,0-4.584-0.859-6.318-2.577c-1.732-1.718-2.6-3.848-2.6-6.389s0.867-4.67,2.6-6.388c1.734-1.718,3.84-2.577,6.318-2.577
		c1.23,0,2.404,0.24,3.523,0.719c1.117,0.479,2.014,1.119,2.684,1.918l-1.51,1.51c-1.135-1.358-2.701-2.038-4.697-2.038
		c-1.807,0-3.369,0.635-4.688,1.906s-1.979,2.921-1.979,4.95c0,2.03,0.66,3.68,1.979,4.95s2.881,1.906,4.688,1.906
		c1.916,0,3.516-0.639,4.793-1.917c0.832-0.831,1.311-1.99,1.439-3.476h-6.232v-2.062h8.318
		C108.254,80.465,108.295,80.896,108.295,81.312z"/>
	<path fill="#4E4E4E" d="M115.965,71.938c0.703,0,1.295,0.104,1.773,0.312l-0.766,1.894c-0.256-0.128-0.592-0.192-1.008-0.192
		c-0.574,0-1.047,0.172-1.414,0.516S114,75.311,114,75.966v1.486h3.068v2.014H114v9.732h-2.207v-9.732h-2.205v-2.014h2.205v-1.558
		c0-1.199,0.385-2.158,1.152-2.876C113.711,72.298,114.719,71.938,115.965,71.938z"/>
	<path fill="#4E4E4E" d="M123.779,89.582c-1.773,0-3.215-0.591-4.326-1.774s-1.666-2.677-1.666-4.483c0-1.71,0.539-3.18,1.617-4.411
		c1.08-1.23,2.457-1.846,4.137-1.846c1.74,0,3.135,0.568,4.182,1.702c1.047,1.135,1.57,2.653,1.57,4.555l-0.023,0.408h-9.277
		c0.064,1.183,0.459,2.118,1.188,2.805c0.727,0.687,1.578,1.031,2.553,1.031c1.582,0,2.652-0.671,3.211-2.014l1.967,0.815
		c-0.385,0.911-1.016,1.674-1.895,2.289C126.137,89.274,125.059,89.582,123.779,89.582z M126.943,81.911
		c-0.047-0.671-0.355-1.31-0.922-1.917c-0.568-0.607-1.41-0.911-2.529-0.911c-0.814,0-1.521,0.256-2.121,0.767
		c-0.6,0.512-1.012,1.199-1.234,2.062H126.943z"/>
	<path fill="#4E4E4E" d="M135.789,89.582c-1.311,0-2.393-0.32-3.248-0.959c-0.855-0.639-1.482-1.438-1.881-2.397l1.965-0.815
		c0.623,1.471,1.686,2.206,3.189,2.206c0.686,0,1.25-0.152,1.689-0.456c0.439-0.303,0.658-0.703,0.658-1.199
		c0-0.767-0.535-1.286-1.605-1.558l-2.373-0.575c-0.752-0.192-1.463-0.555-2.133-1.091c-0.672-0.535-1.008-1.258-1.008-2.169
		c0-1.039,0.459-1.882,1.379-2.529c0.918-0.647,2.01-0.971,3.271-0.971c1.039,0,1.967,0.236,2.781,0.708s1.398,1.147,1.75,2.025
		l-1.918,0.791c-0.432-1.039-1.326-1.558-2.686-1.558c-0.654,0-1.205,0.136-1.652,0.408c-0.449,0.272-0.672,0.639-0.672,1.103
		c0,0.671,0.52,1.126,1.559,1.366l2.324,0.552c1.104,0.255,1.918,0.695,2.445,1.318c0.527,0.623,0.791,1.327,0.791,2.109
		c0,1.055-0.432,1.934-1.295,2.637C138.26,89.23,137.148,89.582,135.789,89.582z"/>
	<path fill="#4E4E4E" d="M147.297,89.39c-1.232,0-2.17-0.328-2.818-0.983c-0.646-0.655-0.971-1.582-0.971-2.781v-6.161h-2.061
		v-2.014h2.061v-3.596h2.205v3.596h2.877v2.014h-2.877v5.993c0,1.279,0.529,1.918,1.584,1.918c0.398,0,0.734-0.064,1.006-0.192
		l0.768,1.894C148.59,89.286,148,89.39,147.297,89.39z"/>
	<path fill="#4E4E4E" d="M62.27,117.965h-2.205v-17.164h5.848c1.455,0,2.713,0.482,3.775,1.449s1.596,2.186,1.596,3.656
		s-0.533,2.689-1.596,3.656s-2.32,1.449-3.775,1.449H62.27V117.965z M62.27,108.902h3.691c0.926,0,1.67-0.311,2.229-0.934
		c0.561-0.625,0.84-1.311,0.84-2.062c0-0.75-0.279-1.438-0.84-2.061c-0.559-0.625-1.303-0.936-2.229-0.936H62.27V108.902z"/>
	<path fill="#4E4E4E" d="M75.406,117.965h-2.207v-11.746h2.111v1.916h0.096c0.223-0.639,0.682-1.166,1.377-1.582
		c0.695-0.414,1.371-0.623,2.025-0.623c0.656,0,1.207,0.096,1.654,0.289l-0.838,2.061c-0.289-0.111-0.68-0.168-1.176-0.168
		c-0.799,0-1.506,0.316-2.121,0.947s-0.922,1.459-0.922,2.48V117.965z"/>
	<path fill="#4E4E4E" d="M85.139,118.348c-1.248,0-2.291-0.359-3.129-1.078c-0.84-0.721-1.258-1.67-1.258-2.854
		c0-1.277,0.494-2.281,1.484-3.008c0.992-0.727,2.215-1.092,3.668-1.092c1.295,0,2.357,0.24,3.189,0.721v-0.336
		c0-0.863-0.297-1.555-0.887-2.074c-0.592-0.52-1.318-0.779-2.182-0.779c-0.641,0-1.219,0.152-1.738,0.455
		c-0.52,0.305-0.875,0.721-1.066,1.248l-2.014-0.863c0.271-0.703,0.807-1.355,1.605-1.955c0.799-0.598,1.854-0.898,3.164-0.898
		c1.502,0,2.748,0.439,3.74,1.318c0.99,0.879,1.486,2.119,1.486,3.717v7.096h-2.109v-1.631h-0.096
		C88.119,117.676,86.832,118.348,85.139,118.348z M85.498,116.334c0.91,0,1.738-0.34,2.48-1.02c0.742-0.678,1.115-1.48,1.115-2.408
		c-0.623-0.512-1.559-0.768-2.805-0.768c-1.072,0-1.879,0.232-2.422,0.695c-0.543,0.465-0.814,1.008-0.814,1.631
		c0,0.574,0.248,1.029,0.742,1.365C84.291,116.166,84.857,116.334,85.498,116.334z"/>
	<path fill="#4E4E4E" d="M95.9,100.801v5.418l-0.096,1.629H95.9c0.32-0.559,0.824-1.033,1.51-1.426
		c0.688-0.391,1.424-0.588,2.207-0.588c1.453,0,2.564,0.447,3.332,1.344c0.766,0.895,1.15,2.094,1.15,3.596v7.191h-2.205v-6.857
		c0-2.172-0.969-3.26-2.9-3.26c-0.912,0-1.654,0.363-2.23,1.092c-0.574,0.727-0.863,1.57-0.863,2.529v6.496h-2.205v-17.164H95.9z"/>
	<path fill="#4E4E4E" d="M110.283,118.348c-1.246,0-2.289-0.359-3.127-1.078c-0.84-0.721-1.26-1.67-1.26-2.854
		c0-1.277,0.496-2.281,1.486-3.008c0.992-0.727,2.215-1.092,3.668-1.092c1.295,0,2.357,0.24,3.189,0.721v-0.336
		c0-0.863-0.297-1.555-0.889-2.074c-0.59-0.52-1.318-0.779-2.18-0.779c-0.641,0-1.219,0.152-1.738,0.455
		c-0.52,0.305-0.875,0.721-1.066,1.248l-2.014-0.863c0.271-0.703,0.807-1.355,1.605-1.955c0.799-0.598,1.854-0.898,3.164-0.898
		c1.502,0,2.748,0.439,3.74,1.318c0.99,0.879,1.486,2.119,1.486,3.717v7.096h-2.109v-1.631h-0.098
		C113.264,117.676,111.979,118.348,110.283,118.348z M110.645,116.334c0.91,0,1.736-0.34,2.48-1.02
		c0.742-0.678,1.115-1.48,1.115-2.408c-0.625-0.512-1.559-0.768-2.805-0.768c-1.072,0-1.879,0.232-2.422,0.695
		c-0.543,0.465-0.814,1.008-0.814,1.631c0,0.574,0.246,1.029,0.742,1.365S110.004,116.334,110.645,116.334z"/>
	<path fill="#4E4E4E" d="M134.184,117.965h-10.451v-2.207c3.131-3.146,5.137-5.201,6.016-6.16c0.783-0.879,1.311-1.545,1.582-2.002
		c0.271-0.455,0.408-1.018,0.408-1.689c0-0.688-0.271-1.295-0.814-1.822c-0.545-0.527-1.271-0.791-2.182-0.791
		c-0.832,0-1.502,0.244-2.014,0.732c-0.512,0.486-0.84,1.01-0.982,1.568l-2.014-0.814c0.271-0.863,0.838-1.678,1.701-2.445
		c0.863-0.766,1.982-1.15,3.355-1.15c1.52,0,2.766,0.465,3.74,1.391c0.975,0.928,1.463,2.037,1.463,3.332
		c0,1.598-0.871,3.309-2.613,5.131l-4.795,4.818h7.6V117.965z"/>
	<path fill="#4E4E4E" d="M147.654,115.879c-1.213,1.646-2.805,2.469-4.77,2.469s-3.557-0.822-4.77-2.469
		c-1.215-1.646-1.822-3.684-1.822-6.113c0-2.445,0.607-4.486,1.822-6.125c1.213-1.637,2.805-2.457,4.77-2.457s3.557,0.82,4.77,2.457
		c1.215,1.639,1.822,3.68,1.822,6.125C149.477,112.195,148.869,114.232,147.654,115.879z M142.885,116.238
		c1.311,0,2.361-0.615,3.152-1.846s1.188-2.773,1.188-4.627c0-1.869-0.396-3.416-1.188-4.639s-1.842-1.834-3.152-1.834
		c-1.326,0-2.381,0.611-3.164,1.834s-1.176,2.77-1.176,4.639c0,1.854,0.393,3.396,1.176,4.627S141.559,116.238,142.885,116.238z"/>
	<path fill="#4E4E4E" d="M157.482,117.965h-2.205v-13.664l-3.188,1.391l-0.84-1.871l4.818-2.252h1.414V117.965z"/>
	<path fill="#4E4E4E" d="M163.117,118.348l-1.967-1.006l7.6-13.664h-8.295l0.049-2.109h10.57v2.252L163.117,118.348z"/>
</g>
<g>
	<path fill="#E5E5E5" d="M76.58,144.312c0,2.397-0.711,4.308-2.133,5.73c-1.615,1.693-3.717,2.541-6.305,2.541
		c-2.479,0-4.584-0.859-6.316-2.578c-1.734-1.717-2.602-3.848-2.602-6.389s0.867-4.67,2.602-6.388
		c1.732-1.718,3.838-2.577,6.316-2.577c1.23,0,2.404,0.24,3.523,0.719c1.119,0.48,2.014,1.119,2.686,1.918l-1.512,1.51
		c-1.135-1.357-2.701-2.037-4.697-2.037c-1.807,0-3.369,0.635-4.688,1.906c-1.318,1.27-1.977,2.92-1.977,4.949
		c0,2.03,0.658,3.68,1.977,4.951c1.318,1.27,2.881,1.905,4.688,1.905c1.918,0,3.516-0.639,4.793-1.917
		c0.832-0.832,1.311-1.99,1.439-3.477h-6.232v-2.062h8.318C76.539,143.466,76.58,143.896,76.58,144.312z"/>
	<path fill="#E5E5E5" d="M89.285,137.145h-7.814v5.441h7.047v2.062h-7.047v5.441h7.814v2.109h-10.02v-17.163h10.02V137.145z"/>
	<path fill="#E5E5E5" d="M108.295,144.312c0,2.397-0.711,4.308-2.133,5.73c-1.615,1.693-3.717,2.541-6.305,2.541
		c-2.479,0-4.584-0.859-6.318-2.578c-1.732-1.717-2.6-3.848-2.6-6.389s0.867-4.67,2.6-6.388c1.734-1.718,3.84-2.577,6.318-2.577
		c1.23,0,2.404,0.24,3.523,0.719c1.117,0.48,2.014,1.119,2.684,1.918l-1.51,1.51c-1.135-1.357-2.701-2.037-4.697-2.037
		c-1.807,0-3.369,0.635-4.688,1.906c-1.318,1.27-1.979,2.92-1.979,4.949c0,2.03,0.66,3.68,1.979,4.951
		c1.318,1.27,2.881,1.905,4.688,1.905c1.916,0,3.516-0.639,4.793-1.917c0.832-0.832,1.311-1.99,1.439-3.477h-6.232v-2.062h8.318
		C108.254,143.466,108.295,143.896,108.295,144.312z"/>
	<path fill="#E5E5E5" d="M115.965,134.938c0.703,0,1.295,0.105,1.773,0.312l-0.766,1.894c-0.256-0.128-0.592-0.192-1.008-0.192
		c-0.574,0-1.047,0.172-1.414,0.516S114,138.312,114,138.966v1.486h3.068v2.014H114v9.732h-2.207v-9.732h-2.205v-2.014h2.205v-1.558
		c0-1.198,0.385-2.157,1.152-2.876C113.711,135.299,114.719,134.938,115.965,134.938z"/>
	<path fill="#E5E5E5" d="M123.779,152.583c-1.773,0-3.215-0.592-4.326-1.774s-1.666-2.677-1.666-4.483
		c0-1.709,0.539-3.18,1.617-4.41c1.08-1.23,2.457-1.846,4.137-1.846c1.74,0,3.135,0.567,4.182,1.701
		c1.047,1.135,1.57,2.653,1.57,4.555l-0.023,0.408h-9.277c0.064,1.183,0.459,2.117,1.188,2.805c0.727,0.688,1.578,1.031,2.553,1.031
		c1.582,0,2.652-0.672,3.211-2.014l1.967,0.814c-0.385,0.91-1.016,1.674-1.895,2.289S125.059,152.583,123.779,152.583z
		 M126.943,144.911c-0.047-0.671-0.355-1.311-0.922-1.918c-0.568-0.607-1.41-0.91-2.529-0.91c-0.814,0-1.521,0.256-2.121,0.767
		c-0.6,0.512-1.012,1.198-1.234,2.062H126.943z"/>
	<path fill="#E5E5E5" d="M135.789,152.583c-1.311,0-2.393-0.32-3.248-0.959c-0.855-0.64-1.482-1.439-1.881-2.398l1.965-0.814
		c0.623,1.471,1.686,2.205,3.189,2.205c0.686,0,1.25-0.151,1.689-0.455c0.439-0.303,0.658-0.703,0.658-1.199
		c0-0.767-0.535-1.285-1.605-1.558l-2.373-0.575c-0.752-0.191-1.463-0.555-2.133-1.091c-0.672-0.535-1.008-1.259-1.008-2.169
		c0-1.039,0.459-1.883,1.379-2.529c0.918-0.647,2.01-0.971,3.271-0.971c1.039,0,1.967,0.236,2.781,0.707s1.398,1.146,1.75,2.025
		l-1.918,0.791c-0.432-1.039-1.326-1.559-2.686-1.559c-0.654,0-1.205,0.137-1.652,0.408c-0.449,0.271-0.672,0.639-0.672,1.103
		c0,0.671,0.52,1.126,1.559,1.366l2.324,0.552c1.104,0.255,1.918,0.694,2.445,1.318c0.527,0.623,0.791,1.327,0.791,2.109
		c0,1.055-0.432,1.935-1.295,2.637C138.26,152.23,137.148,152.583,135.789,152.583z"/>
	<path fill="#E5E5E5" d="M147.297,152.391c-1.232,0-2.17-0.327-2.818-0.983c-0.646-0.654-0.971-1.582-0.971-2.78v-6.161h-2.061
		v-2.014h2.061v-3.596h2.205v3.596h2.877v2.014h-2.877v5.993c0,1.278,0.529,1.918,1.584,1.918c0.398,0,0.734-0.063,1.006-0.192
		l0.768,1.895C148.59,152.286,148,152.391,147.297,152.391z"/>
	<path fill="#E5E5E5" d="M62.27,180.966h-2.205v-17.164h5.848c1.455,0,2.713,0.482,3.775,1.449s1.596,2.186,1.596,3.656
		s-0.533,2.689-1.596,3.656s-2.32,1.449-3.775,1.449H62.27V180.966z M62.27,171.903h3.691c0.926,0,1.67-0.311,2.229-0.934
		c0.561-0.625,0.84-1.311,0.84-2.062c0-0.75-0.279-1.438-0.84-2.061c-0.559-0.625-1.303-0.936-2.229-0.936H62.27V171.903z"/>
	<path fill="#E5E5E5" d="M75.406,180.966h-2.207V169.22h2.111v1.916h0.096c0.223-0.639,0.682-1.166,1.377-1.582
		c0.695-0.414,1.371-0.623,2.025-0.623c0.656,0,1.207,0.096,1.654,0.289l-0.838,2.061c-0.289-0.111-0.68-0.168-1.176-0.168
		c-0.799,0-1.506,0.316-2.121,0.947s-0.922,1.459-0.922,2.48V180.966z"/>
	<path fill="#E5E5E5" d="M85.139,181.349c-1.248,0-2.291-0.359-3.129-1.078c-0.84-0.721-1.258-1.67-1.258-2.854
		c0-1.277,0.494-2.281,1.484-3.008c0.992-0.727,2.215-1.092,3.668-1.092c1.295,0,2.357,0.24,3.189,0.721v-0.336
		c0-0.863-0.297-1.555-0.887-2.074c-0.592-0.52-1.318-0.779-2.182-0.779c-0.641,0-1.219,0.152-1.738,0.455
		c-0.52,0.305-0.875,0.721-1.066,1.248l-2.014-0.863c0.271-0.703,0.807-1.355,1.605-1.955c0.799-0.598,1.854-0.898,3.164-0.898
		c1.502,0,2.748,0.439,3.74,1.318c0.99,0.879,1.486,2.119,1.486,3.717v7.096h-2.109v-1.631h-0.096
		C88.119,180.677,86.832,181.349,85.139,181.349z M85.498,179.335c0.91,0,1.738-0.34,2.48-1.02c0.742-0.678,1.115-1.48,1.115-2.408
		c-0.623-0.512-1.559-0.768-2.805-0.768c-1.072,0-1.879,0.232-2.422,0.695c-0.543,0.465-0.814,1.008-0.814,1.631
		c0,0.574,0.248,1.029,0.742,1.365C84.291,179.167,84.857,179.335,85.498,179.335z"/>
	<path fill="#E5E5E5" d="M95.9,163.802v5.418l-0.096,1.629H95.9c0.32-0.559,0.824-1.033,1.51-1.426
		c0.688-0.391,1.424-0.588,2.207-0.588c1.453,0,2.564,0.447,3.332,1.344c0.766,0.895,1.15,2.094,1.15,3.596v7.191h-2.205v-6.857
		c0-2.172-0.969-3.26-2.9-3.26c-0.912,0-1.654,0.363-2.23,1.092c-0.574,0.727-0.863,1.57-0.863,2.529v6.496h-2.205v-17.164H95.9z"/>
	<path fill="#E5E5E5" d="M110.283,181.349c-1.246,0-2.289-0.359-3.127-1.078c-0.84-0.721-1.26-1.67-1.26-2.854
		c0-1.277,0.496-2.281,1.486-3.008c0.992-0.727,2.215-1.092,3.668-1.092c1.295,0,2.357,0.24,3.189,0.721v-0.336
		c0-0.863-0.297-1.555-0.889-2.074c-0.59-0.52-1.318-0.779-2.18-0.779c-0.641,0-1.219,0.152-1.738,0.455
		c-0.52,0.305-0.875,0.721-1.066,1.248l-2.014-0.863c0.271-0.703,0.807-1.355,1.605-1.955c0.799-0.598,1.854-0.898,3.164-0.898
		c1.502,0,2.748,0.439,3.74,1.318c0.99,0.879,1.486,2.119,1.486,3.717v7.096h-2.109v-1.631h-0.098
		C113.264,180.677,111.979,181.349,110.283,181.349z M110.645,179.335c0.91,0,1.736-0.34,2.48-1.02
		c0.742-0.678,1.115-1.48,1.115-2.408c-0.625-0.512-1.559-0.768-2.805-0.768c-1.072,0-1.879,0.232-2.422,0.695
		c-0.543,0.465-0.814,1.008-0.814,1.631c0,0.574,0.246,1.029,0.742,1.365S110.004,179.335,110.645,179.335z"/>
	<path fill="#E5E5E5" d="M134.184,180.966h-10.451v-2.207c3.131-3.146,5.137-5.201,6.016-6.16c0.783-0.879,1.311-1.545,1.582-2.002
		c0.271-0.455,0.408-1.018,0.408-1.689c0-0.688-0.271-1.295-0.814-1.822c-0.545-0.527-1.271-0.791-2.182-0.791
		c-0.832,0-1.502,0.244-2.014,0.732c-0.512,0.486-0.84,1.01-0.982,1.568l-2.014-0.814c0.271-0.863,0.838-1.678,1.701-2.445
		c0.863-0.766,1.982-1.15,3.355-1.15c1.52,0,2.766,0.465,3.74,1.391c0.975,0.928,1.463,2.037,1.463,3.332
		c0,1.598-0.871,3.309-2.613,5.131l-4.795,4.818h7.6V180.966z"/>
	<path fill="#E5E5E5" d="M147.654,178.88c-1.213,1.646-2.805,2.469-4.77,2.469s-3.557-0.822-4.77-2.469
		c-1.215-1.646-1.822-3.684-1.822-6.113c0-2.445,0.607-4.486,1.822-6.125c1.213-1.637,2.805-2.457,4.77-2.457s3.557,0.82,4.77,2.457
		c1.215,1.639,1.822,3.68,1.822,6.125C149.477,175.196,148.869,177.233,147.654,178.88z M142.885,179.239
		c1.311,0,2.361-0.615,3.152-1.846s1.188-2.773,1.188-4.627c0-1.869-0.396-3.416-1.188-4.639s-1.842-1.834-3.152-1.834
		c-1.326,0-2.381,0.611-3.164,1.834s-1.176,2.77-1.176,4.639c0,1.854,0.393,3.396,1.176,4.627S141.559,179.239,142.885,179.239z"/>
	<path fill="#E5E5E5" d="M157.482,180.966h-2.205v-13.664l-3.188,1.391l-0.84-1.871l4.818-2.252h1.414V180.966z"/>
	<path fill="#E5E5E5" d="M163.117,181.349l-1.967-1.006l7.6-13.664h-8.295l0.049-2.109h10.57v2.252L163.117,181.349z"/>
</g>
</svg>
