<?xml version="1.0" encoding="utf-8"?>
<!-- Generator: Adobe Illustrator 16.0.0, SVG Export Plug-In . SVG Version: 6.00 Build 0)  -->
<!DOCTYPE svg PUBLIC "-//W3C//DTD SVG 1.1//EN" "http://www.w3.org/Graphics/SVG/1.1/DTD/svg11.dtd">
<svg version="1.1" id="Layer_1" xmlns="http://www.w3.org/2000/svg" xmlns:xlink="http://www.w3.org/1999/xlink" x="0px" y="0px"
	 width="185px" height="188px" viewBox="0 0 185 188" enable-background="new 0 0 185 188" xml:space="preserve">
<text transform="matrix(1 0 0 1 297.6406 420.9453)" font-family="'MyriadPro-Regular'" font-size="12">ProductSans font.</text>
<g>
	<text transform="matrix(1 0 0 1 69.6299 25.0498)"><tspan x="0" y="0" fill="#4E4E4E" font-family="'ProductSans-Regular'" font-size="20">GBG BizFest</tspan><tspan x="0" y="24" fill="#4E4E4E" font-family="'ProductSans-Regular'" font-size="20">2016 Praha</tspan></text>
	<g>
		<path fill="#EC174F" d="M21.744,49.854l0.009,0.008c2.231,0,4.476-0.846,6.19-2.559l7.863,7.854l0,0
			c7.759-7.76,7.759-20.344,0-28.107l-7.875,7.875h-0.004c3.404,3.414,3.418,8.95,0,12.366
			C26.204,49.009,24.003,49.849,21.744,49.854z"/>
		<g>
			<defs>
				<path id="SVGID_1_" d="M21.753,60.982l-0.009-11.128c2.259-0.005,4.46-0.845,6.184-2.562l0,0c3.418-3.416,3.404-8.952,0-12.366
					l0,0h0.004l7.875-7.875c7.759,7.763,7.759,20.347,0,28.107l0,0C31.929,59.036,26.814,60.99,21.753,60.982L21.753,60.982z"/>
			</defs>
			<clipPath id="SVGID_2_">
				<use xlink:href="#SVGID_1_"  overflow="visible"/>
			</clipPath>
			<path opacity="0.43" clip-path="url(#SVGID_2_)" fill="#4AA848" d="M62.883,29.379l-10.59-3.443
				c-0.703,2.138-2.186,3.976-4.357,5.078l0,0c-4.304,2.186-9.552,0.465-11.751-3.826l0,0h-0.007l-9.924,5.044
				c5.861,11.498,15.93,14.192,26.732,8.705l0,0C57.868,38.455,61.31,34.203,62.883,29.379L62.883,29.379z"/>
		</g>
		<path fill="#FFC325" d="M56.054,6.821c-7.761-7.761-20.345-7.761-28.114,0l0,0l7.87,7.88c3.427-3.418,8.95-3.418,12.373-0.005l0,0
			c1.718,1.721,2.558,3.926,2.562,6.182l0,0l0,0H61.88C61.88,15.812,59.931,10.683,56.054,6.821L56.054,6.821z"/>
		<path fill="#0079C0" d="M7.703,55.175c7.764,7.761,20.347,7.772,28.112-0.003l0,0l-7.872-7.869
			c-3.422,3.415-8.953,3.405-12.37,0.003l0,0c-1.718-1.725-2.556-3.933-2.561-6.18l0,0l0,0H1.886
			C1.873,46.19,3.832,51.306,7.703,55.175L7.703,55.175z"/>
		<path fill="#48A842" d="M50.786,20.956c-0.015,2.271-0.86,4.46-2.585,6.177c-3.441,3.401-8.971,3.374-12.367-0.052l0,0
			c-7.735-7.793-20.312-7.846-28.115-0.12c-3.887,3.854-5.862,8.956-5.887,14.03l11.144,0.049c0.009-2.251,0.855-4.46,2.588-6.173
			c3.431-3.399,8.958-3.375,12.362,0.06l0.002-0.014l-0.002,0.014c7.737,7.786,20.311,7.842,28.106,0.114
			c3.898-3.844,5.867-8.957,5.89-14.032L50.786,20.956z"/>
		<path fill="#EC174F" d="M35.81,27.063h0.006c-3.408-3.423-3.408-8.954-0.006-12.362l-7.87-7.88
			c-3.978,3.979-5.899,9.227-5.801,14.441C27.103,21.354,32.03,23.276,35.81,27.063z"/>
	</g>
</g>
<g>
	<text transform="matrix(1 0 0 1 69.6294 88.0498)"><tspan x="0" y="0" fill="#4E4E4E" font-family="'ProductSans-Regular'" font-size="20">GBG BizFest</tspan><tspan x="0" y="24" fill="#4E4E4E" font-family="'ProductSans-Regular'" font-size="20">2016 Praha</tspan></text>
	<g>
		<path fill="#5D5D5D" d="M21.745,112.854l0.008,0.009c2.232,0,4.477-0.846,6.19-2.559l7.864,7.854l0,0
			c7.758-7.76,7.758-20.344,0-28.107l-7.876,7.875h-0.004c3.404,3.414,3.418,8.95,0,12.365
			C26.204,112.01,24.002,112.849,21.745,112.854z"/>
		<g>
			<defs>
				<path id="SVGID_3_" d="M21.752,123.982l-0.008-11.129c2.258-0.005,4.459-0.844,6.183-2.562l0,0
					c3.418-3.415,3.404-8.951,0-12.365l0,0h0.004l7.876-7.875c7.758,7.763,7.758,20.347,0,28.107l0,0
					C31.928,122.036,26.815,123.99,21.752,123.982L21.752,123.982z"/>
			</defs>
			<clipPath id="SVGID_4_">
				<use xlink:href="#SVGID_3_"  overflow="visible"/>
			</clipPath>
			<path opacity="0.43" clip-path="url(#SVGID_4_)" fill="#818181" d="M62.883,92.379l-10.59-3.443
				c-0.703,2.138-2.186,3.976-4.358,5.078l0,0c-4.304,2.186-9.552,0.465-11.751-3.826l0,0h-0.007l-9.923,5.045
				c5.861,11.497,15.929,14.191,26.731,8.704l0,0C57.868,101.455,61.309,97.203,62.883,92.379L62.883,92.379z"/>
		</g>
		<path fill="#C4C4C4" d="M56.053,69.821c-7.761-7.761-20.345-7.761-28.113,0l0,0l7.869,7.88c3.427-3.418,8.951-3.418,12.373-0.005
			l0,0c1.718,1.721,2.559,3.926,2.562,6.182l0,0l0,0h11.135C61.879,78.812,59.93,73.683,56.053,69.821L56.053,69.821z"/>
		<path fill="#5D5D5D" d="M7.704,118.176c7.764,7.761,20.346,7.771,28.111-0.004l0,0l-7.872-7.868
			c-3.421,3.415-8.953,3.405-12.37,0.003l0,0c-1.718-1.725-2.555-3.934-2.561-6.18l0,0l0,0H1.885
			C1.874,109.189,3.833,114.306,7.704,118.176L7.704,118.176z"/>
		<path fill="#808080" d="M50.786,83.956c-0.015,2.271-0.86,4.46-2.584,6.177c-3.441,3.401-8.971,3.374-12.368-0.052l0,0
			c-7.735-7.793-20.312-7.846-28.114-0.12c-3.887,3.854-5.863,8.956-5.887,14.03l11.143,0.049c0.009-2.252,0.855-4.461,2.588-6.173
			c3.432-3.399,8.959-3.375,12.363,0.06l0.001-0.014l-0.001,0.014c7.736,7.786,20.311,7.842,28.105,0.113
			c3.898-3.843,5.867-8.957,5.891-14.032L50.786,83.956z"/>
		<path fill="#5D5D5D" d="M35.809,90.063h0.006c-3.408-3.423-3.408-8.954-0.006-12.362l-7.869-7.88
			c-3.979,3.979-5.9,9.227-5.802,14.441C27.102,84.354,32.03,86.276,35.809,90.063z"/>
	</g>
</g>
<g>
	<text transform="matrix(1 0 0 1 69.6289 151.0498)"><tspan x="0" y="0" fill="#E6E6E5" font-family="'ProductSans-Regular'" font-size="20">GBG BizFest</tspan><tspan x="0" y="24" fill="#E6E6E5" font-family="'ProductSans-Regular'" font-size="20">2016 Praha</tspan></text>
	<g>
		<path fill="#EC174F" d="M21.745,175.854l0.008,0.009c2.232,0,4.477-0.846,6.19-2.559l7.864,7.854l0,0
			c7.758-7.76,7.758-20.344,0-28.107l-7.876,7.875h-0.004c3.404,3.414,3.418,8.95,0,12.365
			C26.204,175.01,24.002,175.849,21.745,175.854z"/>
		<g>
			<defs>
				<path id="SVGID_5_" d="M21.752,186.982l-0.008-11.129c2.258-0.005,4.459-0.844,6.183-2.562l0,0
					c3.418-3.415,3.404-8.951,0-12.365l0,0h0.004l7.876-7.875c7.758,7.764,7.758,20.348,0,28.107l0,0
					C31.928,185.036,26.815,186.99,21.752,186.982L21.752,186.982z"/>
			</defs>
			<clipPath id="SVGID_6_">
				<use xlink:href="#SVGID_5_"  overflow="visible"/>
			</clipPath>
			<path opacity="0.43" clip-path="url(#SVGID_6_)" fill="#4AA848" d="M62.883,155.379l-10.59-3.443
				c-0.703,2.139-2.186,3.977-4.358,5.078l0,0c-4.304,2.186-9.552,0.466-11.751-3.825l0,0h-0.007l-9.923,5.044
				c5.861,11.498,15.929,14.192,26.731,8.705l0,0C57.868,164.455,61.309,160.203,62.883,155.379L62.883,155.379z"/>
		</g>
		<path fill="#FFC325" d="M56.053,132.82c-7.761-7.761-20.345-7.761-28.113,0l0,0l7.869,7.881c3.427-3.418,8.951-3.418,12.373-0.006
			l0,0c1.718,1.722,2.559,3.927,2.562,6.183l0,0l0,0h11.135C61.879,141.812,59.93,136.683,56.053,132.82L56.053,132.82z"/>
		<path fill="#0079C0" d="M7.704,181.176c7.764,7.761,20.346,7.771,28.111-0.004l0,0l-7.872-7.868
			c-3.421,3.415-8.953,3.405-12.37,0.003l0,0c-1.718-1.725-2.555-3.934-2.561-6.18l0,0l0,0H1.885
			C1.874,172.189,3.833,177.306,7.704,181.176L7.704,181.176z"/>
		<path fill="#48A842" d="M50.786,146.955c-0.015,2.271-0.86,4.461-2.584,6.178c-3.441,3.4-8.971,3.373-12.368-0.053l0,0
			c-7.735-7.793-20.312-7.846-28.114-0.119c-3.887,3.854-5.863,8.955-5.887,14.029l11.143,0.049
			c0.009-2.252,0.855-4.461,2.588-6.173c3.432-3.399,8.959-3.375,12.363,0.06l0.001-0.014l-0.001,0.014
			c7.736,7.786,20.311,7.842,28.105,0.113c3.898-3.844,5.867-8.957,5.891-14.031L50.786,146.955z"/>
		<path fill="#EC174F" d="M35.809,153.063h0.006c-3.408-3.423-3.408-8.954-0.006-12.362l-7.869-7.881
			c-3.979,3.979-5.9,9.227-5.802,14.441C27.102,147.354,32.03,149.275,35.809,153.063z"/>
	</g>
</g>
</svg>
