<?xml version="1.0" encoding="utf-8"?>
<!-- Generator: Adobe Illustrator 16.0.0, SVG Export Plug-In . SVG Version: 6.00 Build 0)  -->
<!DOCTYPE svg PUBLIC "-//W3C//DTD SVG 1.1//EN" "http://www.w3.org/Graphics/SVG/1.1/DTD/svg11.dtd">
<svg version="1.1" id="Layer_1" xmlns="http://www.w3.org/2000/svg" xmlns:xlink="http://www.w3.org/1999/xlink" x="0px" y="0px"
	 width="185px" height="188px" viewBox="0 0 185 188" enable-background="new 0 0 185 188" xml:space="preserve">
<text transform="matrix(1 0 0 1 297.6406 420.9453)" font-family="'MyriadPro-Regular'" font-size="12">ProductSans font.</text>
<g>
	<g enable-background="new    ">
		<path fill="#4E4E4E" d="M84.85,18.47c0,2-0.594,3.594-1.78,4.78c-1.333,1.413-3.087,2.12-5.26,2.12c-2.08,0-3.84-0.721-5.28-2.16
			c-1.44-1.44-2.16-3.213-2.16-5.32c0-2.106,0.72-3.88,2.16-5.32c1.44-1.439,3.2-2.159,5.28-2.159c1.053,0,2.046,0.187,2.98,0.56
			c0.933,0.373,1.7,0.9,2.3,1.58l-1.32,1.32c-0.44-0.533-1.01-0.95-1.71-1.25c-0.7-0.301-1.45-0.45-2.25-0.45
			c-1.56,0-2.88,0.54-3.96,1.62c-1.067,1.093-1.6,2.46-1.6,4.1c0,1.641,0.533,3.007,1.6,4.101c1.08,1.079,2.4,1.619,3.96,1.619
			c1.426,0,2.613-0.399,3.56-1.199c0.946-0.801,1.493-1.9,1.64-3.301h-5.2v-1.72h6.94C84.816,17.764,84.85,18.123,84.85,18.47z"/>
		<path fill="#4E4E4E" d="M87.09,25.05v-14.32h5.18c1.132,0,2.107,0.374,2.919,1.12c0.813,0.733,1.221,1.66,1.221,2.78
			c0,1.413-0.646,2.407-1.94,2.979v0.08c0.733,0.24,1.32,0.657,1.761,1.25c0.439,0.594,0.66,1.271,0.66,2.03
			c0,1.174-0.428,2.146-1.281,2.92c-0.826,0.773-1.846,1.16-3.06,1.16H87.09z M88.93,12.49v4.38h3.34c0.653,0,1.2-0.221,1.64-0.66
			c0.439-0.453,0.66-0.967,0.66-1.54c0-0.561-0.214-1.066-0.641-1.521c-0.427-0.439-0.953-0.659-1.58-0.659H88.93z M88.93,18.59v4.7
			h3.7c0.667,0,1.233-0.233,1.7-0.7c0.453-0.467,0.68-1.021,0.68-1.66c0-0.626-0.233-1.173-0.699-1.64
			c-0.467-0.467-1.055-0.7-1.761-0.7H88.93z"/>
		<path fill="#4E4E4E" d="M112.75,18.47c0,2-0.594,3.594-1.78,4.78c-1.333,1.413-3.087,2.12-5.26,2.12
			c-2.08,0-3.841-0.721-5.28-2.16c-1.439-1.44-2.16-3.213-2.16-5.32c0-2.106,0.721-3.88,2.16-5.32c1.439-1.439,3.2-2.159,5.28-2.159
			c1.053,0,2.046,0.187,2.979,0.56s1.7,0.9,2.301,1.58l-1.32,1.32c-0.439-0.533-1.01-0.95-1.71-1.25c-0.7-0.301-1.45-0.45-2.25-0.45
			c-1.56,0-2.88,0.54-3.96,1.62c-1.066,1.093-1.6,2.46-1.6,4.1c0,1.641,0.533,3.007,1.6,4.101c1.08,1.079,2.4,1.619,3.96,1.619
			c1.427,0,2.612-0.399,3.56-1.199c0.947-0.801,1.493-1.9,1.641-3.301h-5.2v-1.72h6.94C112.717,17.764,112.75,18.123,112.75,18.47z"
			/>
		<path fill="#4E4E4E" d="M119.389,25.05v-14.32h5.181c1.133,0,2.106,0.374,2.92,1.12c0.813,0.733,1.22,1.66,1.22,2.78
			c0,1.413-0.646,2.407-1.939,2.979v0.08c0.732,0.24,1.32,0.657,1.76,1.25c0.439,0.594,0.66,1.271,0.66,2.03
			c0,1.174-0.428,2.146-1.28,2.92c-0.827,0.773-1.847,1.16-3.06,1.16H119.389z M121.229,12.49v4.38h3.341
			c0.653,0,1.2-0.221,1.64-0.66c0.44-0.453,0.66-0.967,0.66-1.54c0-0.561-0.213-1.066-0.641-1.521
			c-0.426-0.439-0.953-0.659-1.579-0.659H121.229z M121.229,18.59v4.7h3.701c0.666,0,1.232-0.233,1.699-0.7
			c0.453-0.467,0.68-1.021,0.68-1.66c0-0.626-0.232-1.173-0.699-1.64s-1.054-0.7-1.76-0.7H121.229z"/>
		<path fill="#4E4E4E" d="M133.329,11.87c0,0.359-0.127,0.667-0.38,0.92c-0.254,0.253-0.561,0.38-0.92,0.38
			c-0.36,0-0.667-0.127-0.92-0.38c-0.254-0.253-0.381-0.561-0.381-0.92c0-0.36,0.127-0.667,0.381-0.92
			c0.253-0.254,0.56-0.381,0.92-0.381c0.359,0,0.666,0.127,0.92,0.381C133.202,11.203,133.329,11.51,133.329,11.87z M132.949,15.25
			v9.8h-1.84v-9.8H132.949z"/>
		<path fill="#4E4E4E" d="M142.789,25.05h-7.92v-1.6l5.58-6.521h-5.42v-1.68h7.68v1.6l-5.58,6.521h5.66V25.05z"/>
		<path fill="#4E4E4E" d="M146.709,18.91v6.14h-1.84v-14.32h8.359v1.761h-6.52v4.699h5.88v1.721H146.709z"/>
		<path fill="#4E4E4E" d="M158.789,25.37c-1.44,0-2.627-0.493-3.561-1.48c-0.934-0.986-1.4-2.233-1.4-3.74
			c0-1.493,0.453-2.736,1.36-3.729s2.066-1.49,3.479-1.49c1.453,0,2.61,0.47,3.471,1.41c0.859,0.94,1.29,2.257,1.29,3.95l-0.021,0.2
			h-7.699c0.026,0.96,0.346,1.733,0.959,2.319c0.613,0.587,1.348,0.88,2.201,0.88c1.172,0,2.093-0.586,2.76-1.76l1.64,0.8
			c-0.44,0.827-1.05,1.474-1.83,1.94S159.775,25.37,158.789,25.37z M155.849,18.97h5.62c-0.054-0.68-0.33-1.243-0.83-1.689
			c-0.5-0.447-1.17-0.671-2.01-0.671c-0.693,0-1.291,0.214-1.791,0.641S156.009,18.25,155.849,18.97z"/>
		<path fill="#4E4E4E" d="M172.709,22.33c0,0.854-0.374,1.573-1.121,2.16c-0.746,0.586-1.687,0.88-2.819,0.88
			c-0.987,0-1.854-0.257-2.601-0.771c-0.746-0.513-1.279-1.189-1.6-2.03l1.641-0.699c0.239,0.587,0.59,1.043,1.049,1.37
			c0.461,0.326,0.964,0.489,1.511,0.489c0.587,0,1.076-0.126,1.47-0.38c0.393-0.253,0.59-0.553,0.59-0.899
			c0-0.627-0.48-1.087-1.439-1.381l-1.68-0.42c-1.908-0.479-2.861-1.399-2.861-2.76c0-0.893,0.363-1.609,1.091-2.149
			c0.727-0.54,1.656-0.811,2.79-0.811c0.866,0,1.65,0.207,2.35,0.62c0.7,0.413,1.19,0.967,1.471,1.66l-1.641,0.68
			c-0.187-0.413-0.49-0.736-0.91-0.97s-0.89-0.351-1.41-0.351c-0.479,0-0.91,0.12-1.289,0.36c-0.381,0.24-0.57,0.533-0.57,0.88
			c0,0.561,0.526,0.96,1.58,1.2l1.48,0.38C171.734,19.87,172.709,20.85,172.709,22.33z"/>
		<path fill="#4E4E4E" d="M178.088,25.21c-0.8,0-1.463-0.247-1.99-0.74s-0.797-1.18-0.81-2.06v-5.48h-1.72v-1.68h1.72v-3h1.84v3
			h2.399v1.68h-2.399v4.88c0,0.653,0.126,1.097,0.38,1.33s0.54,0.351,0.859,0.351c0.147,0,0.291-0.017,0.431-0.051
			c0.14-0.033,0.271-0.076,0.39-0.13l0.58,1.641C179.288,25.123,178.729,25.21,178.088,25.21z"/>
	</g>
	<g enable-background="new    ">
		<path fill="#4E4E4E" d="M79.15,47.29v1.76h-8.72v-1.84l3.54-3.58c1.187-1.213,2.007-2.123,2.46-2.73
			c0.453-0.606,0.68-1.243,0.68-1.909c0-0.601-0.233-1.113-0.7-1.54s-1.067-0.641-1.8-0.641c-0.627,0-1.167,0.188-1.62,0.561
			s-0.747,0.826-0.88,1.359l-1.68-0.68c0.267-0.84,0.78-1.55,1.54-2.13c0.76-0.58,1.653-0.87,2.68-0.87c1.24,0,2.273,0.38,3.1,1.14
			c0.827,0.761,1.24,1.693,1.24,2.801c0,1.319-0.727,2.746-2.18,4.279l-4,4.021H79.15z"/>
		<path fill="#4E4E4E" d="M80.91,42.21c0-2.08,0.513-3.793,1.54-5.141c1.027-1.346,2.347-2.02,3.96-2.02s2.933,0.68,3.96,2.04
			c1.027,1.347,1.54,3.054,1.54,5.12c0,2.054-0.513,3.767-1.54,5.14c-1.027,1.347-2.347,2.021-3.96,2.021s-2.933-0.674-3.96-2.021
			C81.423,45.977,80.91,44.264,80.91,42.21z M90.03,42.21c0-1.573-0.333-2.867-1-3.88c-0.653-1.014-1.527-1.521-2.62-1.521
			s-1.967,0.507-2.62,1.521c-0.667,1.013-1,2.307-1,3.88s0.333,2.873,1,3.899c0.653,1,1.527,1.5,2.62,1.5s1.967-0.506,2.62-1.52
			C89.696,45.063,90.03,43.77,90.03,42.21z"/>
		<path fill="#4E4E4E" d="M98.59,35.37v13.68h-1.84v-11.4l-2.66,1.16l-0.701-1.56l4.021-1.88H98.59z"/>
		<path fill="#4E4E4E" d="M106.27,40.37c1.105,0,2.093,0.439,2.959,1.319c0.881,0.867,1.32,1.9,1.32,3.101
			c0,1.227-0.467,2.3-1.4,3.22c-0.946,0.907-2.039,1.36-3.279,1.36c-1.32,0-2.434-0.453-3.34-1.36
			c-0.907-0.906-1.36-1.979-1.36-3.22c0-1.106,0.446-2.367,1.341-3.78l3.979-5.96l1.479,1.02l-3.379,4.681l0.039,0.04
			C105.043,40.51,105.59,40.37,106.27,40.37z M103.029,44.81c0,0.787,0.273,1.454,0.82,2c0.546,0.533,1.22,0.8,2.02,0.8
			s1.467-0.267,2-0.8c0.547-0.546,0.82-1.213,0.82-2c0-0.772-0.28-1.433-0.84-1.979c-0.547-0.547-1.207-0.82-1.98-0.82
			c-0.76,0-1.427,0.273-2,0.82C103.309,43.377,103.029,44.037,103.029,44.81z"/>
		<path fill="#4E4E4E" d="M119.028,43.25v5.8h-1.84v-14.32h4.88c1.24,0,2.293,0.414,3.16,1.24c0.88,0.827,1.32,1.834,1.32,3.021
			c0,1.213-0.44,2.227-1.32,3.04c-0.854,0.812-1.906,1.22-3.16,1.22H119.028z M119.028,36.49v5h3.08c0.733,0,1.341-0.247,1.82-0.74
			c0.493-0.493,0.739-1.08,0.739-1.76c0-0.667-0.246-1.247-0.739-1.74c-0.479-0.507-1.087-0.76-1.82-0.76H119.028z"/>
		<path fill="#4E4E4E" d="M129.988,49.05h-1.84v-9.8h1.76v1.6h0.08c0.187-0.52,0.57-0.963,1.15-1.33
			c0.58-0.366,1.149-0.55,1.709-0.55c0.533,0,0.987,0.08,1.361,0.24l-0.561,1.78c-0.227-0.094-0.587-0.141-1.08-0.141
			c-0.693,0-1.297,0.28-1.811,0.84c-0.513,0.561-0.77,1.214-0.77,1.96V49.05z"/>
		<path fill="#4E4E4E" d="M138.729,38.93c1.36,0,2.434,0.363,3.221,1.09c0.786,0.728,1.18,1.724,1.18,2.99v6.04h-1.76v-1.36h-0.08
			c-0.76,1.12-1.773,1.681-3.041,1.681c-1.08,0-1.982-0.32-2.709-0.96c-0.727-0.641-1.09-1.44-1.09-2.4
			c0-1.013,0.383-1.82,1.149-2.42s1.79-0.9,3.069-0.9c1.094,0,1.994,0.2,2.701,0.601v-0.42c0-0.641-0.254-1.184-0.76-1.63
			c-0.508-0.447-1.101-0.671-1.781-0.671c-1.026,0-1.84,0.434-2.439,1.301l-1.62-1.021C135.662,39.569,136.982,38.93,138.729,38.93z
			 M136.349,46.05c0,0.48,0.203,0.88,0.61,1.2c0.406,0.319,0.883,0.479,1.43,0.479c0.773,0,1.463-0.286,2.07-0.859
			c0.606-0.573,0.91-1.247,0.91-2.021c-0.574-0.453-1.374-0.68-2.4-0.68c-0.747,0-1.37,0.18-1.87,0.54
			C136.599,45.069,136.349,45.517,136.349,46.05z"/>
		<path fill="#4E4E4E" d="M145.209,34.729h1.84v4.521l-0.08,1.359h0.08c0.279-0.479,0.709-0.88,1.289-1.199
			c0.58-0.32,1.184-0.48,1.811-0.48c1.199,0,2.123,0.344,2.77,1.03s0.971,1.663,0.971,2.93v6.16h-1.84v-5.8
			c0-1.76-0.78-2.641-2.34-2.641c-0.748,0-1.377,0.311-1.891,0.931s-0.77,1.343-0.77,2.17v5.34h-1.84V34.729z"/>
		<path fill="#4E4E4E" d="M159.668,38.93c1.361,0,2.434,0.363,3.221,1.09c0.787,0.728,1.18,1.724,1.18,2.99v6.04h-1.76v-1.36h-0.08
			c-0.76,1.12-1.773,1.681-3.04,1.681c-1.08,0-1.983-0.32-2.71-0.96c-0.727-0.641-1.09-1.44-1.09-2.4c0-1.013,0.383-1.82,1.15-2.42
			c0.766-0.6,1.789-0.9,3.069-0.9c1.093,0,1.993,0.2,2.7,0.601v-0.42c0-0.641-0.254-1.184-0.76-1.63
			c-0.508-0.447-1.1-0.671-1.78-0.671c-1.026,0-1.84,0.434-2.44,1.301l-1.619-1.021C156.602,39.569,157.922,38.93,159.668,38.93z
			 M157.289,46.05c0,0.48,0.203,0.88,0.609,1.2c0.406,0.319,0.883,0.479,1.43,0.479c0.773,0,1.463-0.286,2.07-0.859
			s0.91-1.247,0.91-2.021c-0.573-0.453-1.373-0.68-2.4-0.68c-0.746,0-1.369,0.18-1.869,0.54
			C157.539,45.069,157.289,45.517,157.289,46.05z"/>
	</g>
	<g>
		<path fill="#EC174F" d="M21.744,49.854l0.009,0.008c2.231,0,4.476-0.846,6.19-2.559l7.863,7.854l0,0
			c7.759-7.76,7.759-20.344,0-28.107l-7.875,7.875h-0.004c3.404,3.414,3.418,8.95,0,12.366
			C26.204,49.009,24.003,49.849,21.744,49.854z"/>
		<g>
			<g>
				<defs>
					<path id="SVGID_1_" d="M21.753,60.982l-0.009-11.128c2.259-0.005,4.46-0.845,6.184-2.562l0,0c3.418-3.416,3.404-8.952,0-12.366
						l0,0h0.004l7.875-7.875c7.759,7.763,7.759,20.347,0,28.107l0,0C31.929,59.036,26.814,60.99,21.753,60.982L21.753,60.982z"/>
				</defs>
				<clipPath id="SVGID_2_">
					<use xlink:href="#SVGID_1_"  overflow="visible"/>
				</clipPath>
				<path opacity="0.43" clip-path="url(#SVGID_2_)" fill="#4AA848" enable-background="new    " d="M62.883,29.379l-10.59-3.443
					c-0.703,2.138-2.186,3.976-4.357,5.078l0,0c-4.304,2.186-9.552,0.465-11.751-3.826l0,0h-0.007l-9.924,5.044
					c5.861,11.498,15.93,14.192,26.732,8.705l0,0C57.868,38.455,61.31,34.203,62.883,29.379L62.883,29.379z"/>
			</g>
		</g>
		<path fill="#FFC325" d="M56.054,6.821c-7.761-7.761-20.345-7.761-28.114,0l0,0l7.87,7.88c3.427-3.418,8.95-3.418,12.373-0.005l0,0
			c1.718,1.721,2.558,3.926,2.562,6.182l0,0l0,0H61.88C61.88,15.812,59.931,10.683,56.054,6.821L56.054,6.821z"/>
		<path fill="#0079C0" d="M7.703,55.175c7.764,7.761,20.347,7.772,28.112-0.003l0,0l-7.872-7.869
			c-3.422,3.415-8.953,3.405-12.37,0.003l0,0c-1.718-1.725-2.556-3.933-2.561-6.18l0,0l0,0H1.886
			C1.873,46.19,3.832,51.306,7.703,55.175L7.703,55.175z"/>
		<path fill="#48A842" d="M50.786,20.956c-0.015,2.271-0.86,4.46-2.585,6.177c-3.441,3.401-8.971,3.374-12.367-0.052l0,0
			c-7.735-7.793-20.312-7.846-28.115-0.12c-3.887,3.854-5.862,8.956-5.887,14.03l11.144,0.049c0.009-2.251,0.855-4.46,2.588-6.173
			c3.431-3.399,8.958-3.375,12.362,0.06l0.002-0.014l-0.002,0.014c7.737,7.786,20.311,7.842,28.106,0.114
			c3.898-3.844,5.867-8.957,5.89-14.032L50.786,20.956z"/>
		<path fill="#EC174F" d="M35.81,27.063h0.006c-3.408-3.423-3.408-8.954-0.006-12.362l-7.87-7.88
			c-3.978,3.979-5.899,9.227-5.801,14.441C27.103,21.354,32.03,23.276,35.81,27.063z"/>
	</g>
</g>
<g>
	<g enable-background="new    ">
		<path fill="#4E4E4E" d="M84.85,81.47c0,2-0.594,3.594-1.78,4.78c-1.333,1.413-3.087,2.12-5.26,2.12c-2.08,0-3.84-0.721-5.28-2.16
			c-1.44-1.44-2.16-3.213-2.16-5.32c0-2.106,0.72-3.88,2.16-5.32c1.44-1.439,3.2-2.159,5.28-2.159c1.053,0,2.046,0.187,2.98,0.56
			c0.933,0.373,1.7,0.9,2.3,1.58l-1.32,1.32c-0.44-0.533-1.01-0.95-1.71-1.25c-0.7-0.301-1.45-0.45-2.25-0.45
			c-1.56,0-2.88,0.54-3.96,1.62c-1.067,1.093-1.6,2.46-1.6,4.1c0,1.641,0.533,3.007,1.6,4.101c1.08,1.079,2.4,1.619,3.96,1.619
			c1.426,0,2.613-0.399,3.56-1.199c0.946-0.801,1.493-1.9,1.64-3.301h-5.2v-1.72h6.94C84.816,80.764,84.85,81.123,84.85,81.47z"/>
		<path fill="#4E4E4E" d="M87.089,88.05v-14.32h5.18c1.133,0,2.106,0.374,2.92,1.12c0.812,0.733,1.22,1.66,1.22,2.78
			c0,1.413-0.646,2.407-1.94,2.979v0.08c0.734,0.24,1.32,0.657,1.761,1.25c0.44,0.594,0.66,1.271,0.66,2.03
			c0,1.174-0.427,2.146-1.28,2.92c-0.826,0.773-1.847,1.16-3.06,1.16H87.089z M88.929,75.49v4.38h3.34
			c0.653,0,1.199-0.221,1.64-0.66c0.44-0.453,0.66-0.967,0.66-1.54c0-0.561-0.214-1.066-0.64-1.521
			c-0.428-0.439-0.954-0.659-1.58-0.659H88.929z M88.929,81.59v4.7h3.7c0.667,0,1.233-0.233,1.701-0.7
			c0.453-0.467,0.68-1.021,0.68-1.66c0-0.626-0.234-1.173-0.7-1.64c-0.467-0.467-1.054-0.7-1.76-0.7H88.929z"/>
		<path fill="#4E4E4E" d="M112.75,81.47c0,2-0.594,3.594-1.781,4.78c-1.333,1.413-3.086,2.12-5.26,2.12
			c-2.08,0-3.84-0.721-5.279-2.16c-1.44-1.44-2.16-3.213-2.16-5.32c0-2.106,0.72-3.88,2.16-5.32
			c1.439-1.439,3.199-2.159,5.279-2.159c1.053,0,2.047,0.187,2.98,0.56s1.699,0.9,2.3,1.58l-1.319,1.32
			c-0.44-0.533-1.011-0.95-1.711-1.25c-0.699-0.301-1.449-0.45-2.25-0.45c-1.56,0-2.88,0.54-3.959,1.62
			c-1.067,1.093-1.601,2.46-1.601,4.1c0,1.641,0.533,3.007,1.601,4.101c1.079,1.079,2.399,1.619,3.959,1.619
			c1.427,0,2.613-0.399,3.561-1.199c0.946-0.801,1.492-1.9,1.64-3.301h-5.2v-1.72h6.94C112.716,80.764,112.75,81.123,112.75,81.47z"
			/>
		<path fill="#4E4E4E" d="M119.389,88.05v-14.32h5.18c1.133,0,2.107,0.374,2.92,1.12c0.813,0.733,1.221,1.66,1.221,2.78
			c0,1.413-0.646,2.407-1.94,2.979v0.08c0.733,0.24,1.32,0.657,1.761,1.25c0.439,0.594,0.66,1.271,0.66,2.03
			c0,1.174-0.428,2.146-1.281,2.92c-0.826,0.773-1.846,1.16-3.06,1.16H119.389z M121.229,75.49v4.38h3.34
			c0.653,0,1.2-0.221,1.641-0.66c0.439-0.453,0.66-0.967,0.66-1.54c0-0.561-0.214-1.066-0.641-1.521
			c-0.427-0.439-0.953-0.659-1.58-0.659H121.229z M121.229,81.59v4.7h3.7c0.667,0,1.233-0.233,1.7-0.7
			c0.453-0.467,0.68-1.021,0.68-1.66c0-0.626-0.233-1.173-0.699-1.64c-0.467-0.467-1.055-0.7-1.761-0.7H121.229z"/>
		<path fill="#4E4E4E" d="M133.328,74.87c0,0.359-0.127,0.667-0.379,0.92c-0.254,0.253-0.561,0.38-0.92,0.38
			c-0.361,0-0.668-0.127-0.921-0.38s-0.38-0.561-0.38-0.92c0-0.36,0.127-0.667,0.38-0.92c0.253-0.254,0.56-0.381,0.921-0.381
			c0.359,0,0.666,0.127,0.92,0.381C133.201,74.203,133.328,74.51,133.328,74.87z M132.949,78.25v9.8h-1.841v-9.8H132.949z"/>
		<path fill="#4E4E4E" d="M142.789,88.05h-7.92v-1.6l5.58-6.521h-5.421v-1.68h7.681v1.6l-5.58,6.521h5.66V88.05z"/>
		<path fill="#4E4E4E" d="M146.708,81.91v6.14h-1.84v-14.32h8.36v1.761h-6.521v4.699h5.88v1.721H146.708z"/>
		<path fill="#4E4E4E" d="M158.788,88.37c-1.44,0-2.627-0.493-3.56-1.48c-0.934-0.986-1.4-2.233-1.4-3.74
			c0-1.493,0.453-2.736,1.359-3.729c0.907-0.993,2.066-1.49,3.48-1.49c1.453,0,2.609,0.47,3.471,1.41
			c0.859,0.94,1.289,2.257,1.289,3.95l-0.02,0.2h-7.7c0.026,0.96,0.347,1.733,0.96,2.319c0.613,0.587,1.347,0.88,2.2,0.88
			c1.173,0,2.093-0.586,2.76-1.76l1.64,0.8c-0.439,0.827-1.049,1.474-1.83,1.94C160.658,88.137,159.774,88.37,158.788,88.37z
			 M155.848,81.97h5.621c-0.055-0.68-0.33-1.243-0.83-1.689c-0.5-0.447-1.17-0.671-2.011-0.671c-0.693,0-1.29,0.214-1.79,0.641
			S156.008,81.25,155.848,81.97z"/>
		<path fill="#4E4E4E" d="M172.708,85.33c0,0.854-0.374,1.573-1.12,2.16c-0.747,0.586-1.688,0.88-2.82,0.88
			c-0.986,0-1.854-0.257-2.6-0.771c-0.747-0.513-1.28-1.189-1.6-2.03l1.64-0.699c0.239,0.587,0.59,1.043,1.05,1.37
			c0.46,0.326,0.963,0.489,1.51,0.489c0.587,0,1.076-0.126,1.471-0.38c0.393-0.253,0.59-0.553,0.59-0.899
			c0-0.627-0.48-1.087-1.44-1.381l-1.68-0.42c-1.907-0.479-2.86-1.399-2.86-2.76c0-0.893,0.363-1.609,1.09-2.149
			s1.656-0.811,2.791-0.811c0.865,0,1.649,0.207,2.35,0.62c0.699,0.413,1.189,0.967,1.47,1.66l-1.64,0.68
			c-0.188-0.413-0.49-0.736-0.91-0.97s-0.891-0.351-1.41-0.351c-0.48,0-0.91,0.12-1.29,0.36s-0.569,0.533-0.569,0.88
			c0,0.561,0.525,0.96,1.58,1.2l1.479,0.38C171.734,82.87,172.708,83.85,172.708,85.33z"/>
		<path fill="#4E4E4E" d="M178.088,88.21c-0.801,0-1.464-0.247-1.99-0.74c-0.527-0.493-0.797-1.18-0.811-2.06v-5.48h-1.72v-1.68
			h1.72v-3h1.84v3h2.4v1.68h-2.4v4.88c0,0.653,0.127,1.097,0.381,1.33c0.253,0.233,0.539,0.351,0.859,0.351
			c0.146,0,0.29-0.017,0.43-0.051c0.141-0.033,0.271-0.076,0.391-0.13l0.58,1.641C179.287,88.123,178.728,88.21,178.088,88.21z"/>
	</g>
	<g enable-background="new    ">
		<path fill="#4E4E4E" d="M79.149,110.29v1.76h-8.72v-1.84l3.54-3.58c1.187-1.213,2.007-2.123,2.46-2.73
			c0.453-0.606,0.68-1.243,0.68-1.909c0-0.601-0.233-1.113-0.7-1.54s-1.067-0.641-1.8-0.641c-0.627,0-1.167,0.188-1.62,0.561
			s-0.747,0.826-0.88,1.359l-1.68-0.68c0.267-0.84,0.78-1.55,1.54-2.13c0.76-0.58,1.653-0.87,2.68-0.87c1.24,0,2.273,0.38,3.1,1.14
			c0.827,0.761,1.24,1.693,1.24,2.801c0,1.319-0.727,2.746-2.18,4.279l-4,4.021H79.149z"/>
		<path fill="#4E4E4E" d="M80.909,105.21c0-2.08,0.513-3.793,1.54-5.141c1.027-1.346,2.347-2.02,3.96-2.02s2.933,0.68,3.96,2.04
			c1.027,1.347,1.54,3.054,1.54,5.12c0,2.054-0.513,3.767-1.54,5.14c-1.027,1.347-2.347,2.021-3.96,2.021s-2.933-0.674-3.96-2.021
			C81.422,108.977,80.909,107.264,80.909,105.21z M90.029,105.21c0-1.573-0.333-2.867-1-3.88c-0.653-1.014-1.527-1.521-2.62-1.521
			s-1.967,0.507-2.62,1.521c-0.667,1.013-1,2.307-1,3.88s0.333,2.873,1,3.899c0.653,1,1.527,1.5,2.62,1.5s1.967-0.506,2.62-1.52
			C89.696,108.063,90.029,106.77,90.029,105.21z"/>
		<path fill="#4E4E4E" d="M98.589,98.37v13.68h-1.84v-11.4l-2.66,1.16l-0.7-1.56l4.02-1.88H98.589z"/>
		<path fill="#4E4E4E" d="M106.269,103.37c1.106,0,2.093,0.439,2.96,1.319c0.881,0.867,1.32,1.9,1.32,3.101
			c0,1.227-0.467,2.3-1.4,3.22c-0.947,0.907-2.039,1.36-3.279,1.36c-1.32,0-2.434-0.453-3.34-1.36
			c-0.908-0.906-1.361-1.979-1.361-3.22c0-1.106,0.447-2.367,1.341-3.78l3.979-5.96l1.48,1.02l-3.38,4.681l0.04,0.04
			C105.042,103.51,105.589,103.37,106.269,103.37z M103.029,107.81c0,0.787,0.272,1.454,0.819,2c0.546,0.533,1.22,0.8,2.021,0.8
			c0.799,0,1.467-0.267,2-0.8c0.546-0.546,0.819-1.213,0.819-2c0-0.772-0.28-1.433-0.84-1.979c-0.547-0.547-1.207-0.82-1.979-0.82
			c-0.76,0-1.428,0.273-2,0.82C103.309,106.377,103.029,107.037,103.029,107.81z"/>
		<path fill="#4E4E4E" d="M119.027,106.25v5.8h-1.84v-14.32h4.881c1.24,0,2.293,0.414,3.16,1.24
			c0.879,0.827,1.319,1.834,1.319,3.021c0,1.213-0.44,2.227-1.319,3.04c-0.854,0.812-1.907,1.22-3.16,1.22H119.027z M119.027,99.49
			v5h3.08c0.734,0,1.341-0.247,1.82-0.74c0.494-0.493,0.74-1.08,0.74-1.76c0-0.667-0.246-1.247-0.74-1.74
			c-0.479-0.507-1.086-0.76-1.82-0.76H119.027z"/>
		<path fill="#4E4E4E" d="M129.988,112.05h-1.84v-9.8h1.76v1.6h0.08c0.186-0.52,0.569-0.963,1.149-1.33
			c0.58-0.366,1.149-0.55,1.71-0.55c0.533,0,0.986,0.08,1.36,0.24l-0.56,1.78c-0.228-0.094-0.588-0.141-1.08-0.141
			c-0.693,0-1.297,0.28-1.811,0.84c-0.514,0.561-0.77,1.214-0.77,1.96V112.05z"/>
		<path fill="#4E4E4E" d="M138.729,101.93c1.359,0,2.433,0.363,3.22,1.09c0.786,0.728,1.181,1.724,1.181,2.99v6.04h-1.761v-1.36
			h-0.08c-0.76,1.12-1.773,1.681-3.04,1.681c-1.08,0-1.983-0.32-2.71-0.96c-0.727-0.641-1.09-1.44-1.09-2.4
			c0-1.013,0.384-1.82,1.149-2.42c0.768-0.6,1.791-0.9,3.07-0.9c1.094,0,1.993,0.2,2.7,0.601v-0.42c0-0.641-0.253-1.184-0.76-1.63
			c-0.507-0.447-1.101-0.671-1.78-0.671c-1.027,0-1.84,0.434-2.439,1.301l-1.621-1.021
			C135.661,102.569,136.981,101.93,138.729,101.93z M136.348,109.05c0,0.48,0.203,0.88,0.61,1.2
			c0.407,0.319,0.884,0.479,1.431,0.479c0.772,0,1.463-0.286,2.069-0.859s0.91-1.247,0.91-2.021c-0.573-0.453-1.374-0.68-2.399-0.68
			c-0.748,0-1.371,0.18-1.871,0.54C136.598,108.069,136.348,108.517,136.348,109.05z"/>
		<path fill="#4E4E4E" d="M145.208,97.729h1.84v4.521l-0.08,1.359h0.08c0.28-0.479,0.71-0.88,1.29-1.199
			c0.58-0.32,1.184-0.48,1.811-0.48c1.199,0,2.123,0.344,2.77,1.03s0.97,1.663,0.97,2.93v6.16h-1.84v-5.8
			c0-1.76-0.78-2.641-2.34-2.641c-0.747,0-1.377,0.311-1.89,0.931c-0.514,0.62-0.771,1.343-0.771,2.17v5.34h-1.84V97.729z"/>
		<path fill="#4E4E4E" d="M159.668,101.93c1.36,0,2.434,0.363,3.221,1.09c0.786,0.728,1.18,1.724,1.18,2.99v6.04h-1.76v-1.36h-0.08
			c-0.76,1.12-1.773,1.681-3.041,1.681c-1.08,0-1.982-0.32-2.709-0.96c-0.727-0.641-1.09-1.44-1.09-2.4
			c0-1.013,0.383-1.82,1.149-2.42s1.79-0.9,3.069-0.9c1.094,0,1.994,0.2,2.701,0.601v-0.42c0-0.641-0.254-1.184-0.76-1.63
			c-0.508-0.447-1.101-0.671-1.781-0.671c-1.026,0-1.84,0.434-2.439,1.301l-1.62-1.021
			C156.602,102.569,157.922,101.93,159.668,101.93z M157.288,109.05c0,0.48,0.203,0.88,0.61,1.2c0.406,0.319,0.883,0.479,1.43,0.479
			c0.773,0,1.463-0.286,2.07-0.859c0.606-0.573,0.91-1.247,0.91-2.021c-0.574-0.453-1.374-0.68-2.4-0.68
			c-0.747,0-1.37,0.18-1.87,0.54C157.538,108.069,157.288,108.517,157.288,109.05z"/>
	</g>
	<g>
		<path fill="#5D5D5D" d="M21.745,112.854l0.008,0.01c2.232,0,4.477-0.846,6.19-2.559l7.864,7.854l0,0
			c7.758-7.76,7.758-20.344,0-28.107l-7.876,7.875h-0.004c3.404,3.414,3.418,8.95,0,12.365
			C26.204,112.01,24.002,112.85,21.745,112.854z"/>
		<g>
			<g>
				<defs>
					<path id="SVGID_3_" d="M21.752,123.982l-0.008-11.129c2.258-0.006,4.459-0.845,6.183-2.562l0,0
						c3.418-3.415,3.404-8.951,0-12.365l0,0h0.004l7.876-7.875c7.758,7.764,7.758,20.348,0,28.107l0,0
						C31.928,122.036,26.815,123.99,21.752,123.982L21.752,123.982z"/>
				</defs>
				<clipPath id="SVGID_4_">
					<use xlink:href="#SVGID_3_"  overflow="visible"/>
				</clipPath>
				<path opacity="0.43" clip-path="url(#SVGID_4_)" fill="#818181" enable-background="new    " d="M62.883,92.379l-10.59-3.443
					c-0.703,2.138-2.186,3.976-4.358,5.078l0,0c-4.304,2.186-9.552,0.465-11.751-3.826l0,0h-0.007l-9.923,5.044
					c5.861,11.498,15.929,14.191,26.731,8.705l0,0C57.868,101.455,61.309,97.203,62.883,92.379L62.883,92.379z"/>
			</g>
		</g>
		<path fill="#C4C4C4" d="M56.053,69.821c-7.761-7.761-20.345-7.761-28.113,0l0,0l7.869,7.88c3.427-3.418,8.951-3.418,12.373-0.005
			l0,0c1.718,1.721,2.559,3.926,2.562,6.182l0,0l0,0h11.135C61.879,78.812,59.93,73.683,56.053,69.821L56.053,69.821z"/>
		<path fill="#5D5D5D" d="M7.704,118.176c7.764,7.762,20.346,7.771,28.111-0.004l0,0l-7.872-7.867
			c-3.421,3.414-8.953,3.404-12.37,0.002l0,0c-1.718-1.725-2.555-3.934-2.561-6.18l0,0l0,0H1.885
			C1.874,109.189,3.833,114.307,7.704,118.176L7.704,118.176z"/>
		<path fill="#808080" d="M50.786,83.956c-0.015,2.271-0.86,4.46-2.584,6.177c-3.441,3.401-8.971,3.374-12.368-0.052l0,0
			c-7.735-7.793-20.312-7.846-28.114-0.12c-3.887,3.854-5.863,8.956-5.887,14.03l11.143,0.049c0.009-2.252,0.855-4.461,2.588-6.173
			c3.432-3.399,8.959-3.375,12.363,0.06l0.001-0.014l-0.001,0.014c7.736,7.786,20.311,7.843,28.105,0.113
			c3.898-3.843,5.867-8.957,5.891-14.032L50.786,83.956z"/>
		<path fill="#5D5D5D" d="M35.809,90.063h0.006c-3.408-3.423-3.408-8.954-0.006-12.362l-7.869-7.88
			c-3.979,3.979-5.9,9.227-5.802,14.441C27.102,84.354,32.03,86.276,35.809,90.063z"/>
	</g>
</g>
<g>
	<g enable-background="new    ">
		<path fill="#E6E6E5" d="M84.849,144.47c0,2-0.594,3.594-1.78,4.78c-1.333,1.413-3.087,2.12-5.26,2.12
			c-2.08,0-3.84-0.721-5.28-2.16c-1.44-1.44-2.16-3.213-2.16-5.32c0-2.106,0.72-3.88,2.16-5.32c1.44-1.439,3.2-2.159,5.28-2.159
			c1.053,0,2.046,0.187,2.98,0.56c0.933,0.373,1.7,0.9,2.3,1.58l-1.32,1.32c-0.44-0.533-1.01-0.95-1.71-1.25
			c-0.7-0.301-1.45-0.45-2.25-0.45c-1.56,0-2.88,0.54-3.96,1.62c-1.067,1.093-1.6,2.46-1.6,4.1c0,1.641,0.533,3.007,1.6,4.101
			c1.08,1.079,2.4,1.619,3.96,1.619c1.426,0,2.613-0.399,3.56-1.199c0.946-0.801,1.493-1.9,1.64-3.301h-5.2v-1.72h6.94
			C84.815,143.764,84.849,144.123,84.849,144.47z"/>
		<path fill="#E6E6E5" d="M87.089,151.05v-14.32h5.18c1.133,0,2.106,0.374,2.92,1.12c0.812,0.733,1.219,1.66,1.219,2.78
			c0,1.413-0.646,2.407-1.939,2.979v0.08c0.733,0.24,1.32,0.657,1.76,1.25c0.44,0.594,0.66,1.271,0.66,2.03
			c0,1.174-0.427,2.146-1.279,2.92c-0.827,0.773-1.848,1.16-3.061,1.16H87.089z M88.929,138.49v4.38h3.34
			c0.653,0,1.2-0.221,1.639-0.66c0.441-0.453,0.66-0.967,0.66-1.54c0-0.561-0.213-1.066-0.64-1.521
			c-0.427-0.439-0.953-0.659-1.58-0.659H88.929z M88.929,144.59v4.7h3.7c0.666,0,1.232-0.233,1.7-0.7
			c0.453-0.467,0.68-1.021,0.68-1.66c0-0.626-0.233-1.173-0.7-1.64s-1.053-0.7-1.76-0.7H88.929z"/>
		<path fill="#E6E6E5" d="M112.749,144.47c0,2-0.594,3.594-1.78,4.78c-1.334,1.413-3.087,2.12-5.26,2.12
			c-2.08,0-3.84-0.721-5.28-2.16c-1.44-1.44-2.159-3.213-2.159-5.32c0-2.106,0.719-3.88,2.159-5.32c1.44-1.439,3.2-2.159,5.28-2.159
			c1.053,0,2.047,0.187,2.98,0.56c0.933,0.373,1.699,0.9,2.299,1.58l-1.319,1.32c-0.44-0.533-1.011-0.95-1.71-1.25
			c-0.7-0.301-1.45-0.45-2.25-0.45c-1.561,0-2.881,0.54-3.96,1.62c-1.067,1.093-1.601,2.46-1.601,4.1
			c0,1.641,0.533,3.007,1.601,4.101c1.079,1.079,2.399,1.619,3.96,1.619c1.426,0,2.613-0.399,3.561-1.199
			c0.945-0.801,1.492-1.9,1.639-3.301h-5.199v-1.72h6.939C112.715,143.764,112.749,144.123,112.749,144.47z"/>
		<path fill="#E6E6E5" d="M119.389,151.05v-14.32h5.18c1.133,0,2.106,0.374,2.92,1.12c0.812,0.733,1.22,1.66,1.22,2.78
			c0,1.413-0.646,2.407-1.94,2.979v0.08c0.734,0.24,1.32,0.657,1.761,1.25c0.44,0.594,0.66,1.271,0.66,2.03
			c0,1.174-0.427,2.146-1.28,2.92c-0.826,0.773-1.847,1.16-3.061,1.16H119.389z M121.229,138.49v4.38h3.34
			c0.652,0,1.199-0.221,1.64-0.66c0.44-0.453,0.66-0.967,0.66-1.54c0-0.561-0.214-1.066-0.64-1.521
			c-0.428-0.439-0.953-0.659-1.58-0.659H121.229z M121.229,144.59v4.7h3.699c0.667,0,1.233-0.233,1.701-0.7
			c0.453-0.467,0.68-1.021,0.68-1.66c0-0.626-0.234-1.173-0.7-1.64c-0.467-0.467-1.054-0.7-1.761-0.7H121.229z"/>
		<path fill="#E6E6E5" d="M133.328,137.87c0,0.359-0.127,0.667-0.38,0.92s-0.56,0.38-0.92,0.38s-0.667-0.127-0.921-0.38
			c-0.253-0.253-0.379-0.561-0.379-0.92c0-0.36,0.126-0.667,0.379-0.92c0.254-0.254,0.561-0.381,0.921-0.381s0.667,0.127,0.92,0.381
			C133.201,137.203,133.328,137.51,133.328,137.87z M132.948,141.25v9.8h-1.841v-9.8H132.948z"/>
		<path fill="#E6E6E5" d="M142.788,151.05h-7.92v-1.6l5.58-6.521h-5.421v-1.68h7.681v1.6l-5.58,6.521h5.66V151.05z"/>
		<path fill="#E6E6E5" d="M146.707,144.91v6.14h-1.84v-14.32h8.36v1.761h-6.521v4.699h5.881v1.721H146.707z"/>
		<path fill="#E6E6E5" d="M158.787,151.37c-1.439,0-2.627-0.493-3.56-1.48c-0.934-0.986-1.399-2.233-1.399-3.74
			c0-1.493,0.453-2.736,1.359-3.729s2.066-1.49,3.48-1.49c1.453,0,2.609,0.47,3.47,1.41s1.29,2.257,1.29,3.95l-0.02,0.2h-7.701
			c0.027,0.96,0.348,1.733,0.961,2.319c0.613,0.587,1.346,0.88,2.199,0.88c1.174,0,2.094-0.586,2.76-1.76l1.641,0.8
			c-0.439,0.827-1.05,1.474-1.83,1.94C160.658,151.137,159.773,151.37,158.787,151.37z M155.848,144.97h5.62
			c-0.054-0.68-0.33-1.243-0.83-1.689c-0.5-0.447-1.17-0.671-2.011-0.671c-0.693,0-1.289,0.214-1.789,0.641
			S156.008,144.25,155.848,144.97z"/>
		<path fill="#E6E6E5" d="M172.707,148.33c0,0.854-0.373,1.573-1.119,2.16c-0.748,0.586-1.688,0.88-2.82,0.88
			c-0.986,0-1.854-0.257-2.6-0.771c-0.748-0.513-1.281-1.189-1.601-2.03l1.64-0.699c0.24,0.587,0.59,1.043,1.051,1.37
			c0.459,0.326,0.963,0.489,1.51,0.489c0.586,0,1.076-0.126,1.47-0.38c0.394-0.253,0.591-0.553,0.591-0.899
			c0-0.627-0.48-1.087-1.441-1.381l-1.68-0.42c-1.906-0.479-2.859-1.399-2.859-2.76c0-0.893,0.363-1.609,1.09-2.149
			s1.656-0.811,2.79-0.811c0.866,0,1.649,0.207,2.351,0.62c0.699,0.413,1.189,0.967,1.469,1.66l-1.64,0.68
			c-0.187-0.413-0.489-0.736-0.909-0.97s-0.891-0.351-1.41-0.351c-0.48,0-0.91,0.12-1.291,0.36c-0.379,0.24-0.569,0.533-0.569,0.88
			c0,0.561,0.526,0.96,1.58,1.2l1.479,0.38C171.734,145.87,172.707,146.85,172.707,148.33z"/>
		<path fill="#E6E6E5" d="M178.087,151.21c-0.8,0-1.464-0.247-1.99-0.74s-0.797-1.18-0.81-2.06v-5.48h-1.721v-1.68h1.721v-3h1.84v3
			h2.4v1.68h-2.4v4.88c0,0.653,0.127,1.097,0.38,1.33s0.54,0.351,0.86,0.351c0.146,0,0.289-0.017,0.43-0.051
			c0.141-0.033,0.27-0.076,0.391-0.13l0.58,1.641C179.287,151.123,178.727,151.21,178.087,151.21z"/>
	</g>
	<g enable-background="new    ">
		<path fill="#E6E6E5" d="M79.149,173.29v1.76h-8.72v-1.84l3.54-3.58c1.187-1.213,2.007-2.123,2.46-2.73
			c0.453-0.606,0.68-1.243,0.68-1.909c0-0.601-0.233-1.113-0.7-1.54s-1.067-0.641-1.8-0.641c-0.627,0-1.167,0.188-1.62,0.561
			s-0.747,0.826-0.88,1.359l-1.68-0.68c0.267-0.84,0.78-1.55,1.54-2.13c0.76-0.58,1.653-0.87,2.68-0.87c1.24,0,2.273,0.38,3.1,1.14
			c0.827,0.761,1.24,1.693,1.24,2.801c0,1.319-0.727,2.746-2.18,4.279l-4,4.021H79.149z"/>
		<path fill="#E6E6E5" d="M80.909,168.21c0-2.08,0.513-3.793,1.54-5.141c1.027-1.346,2.347-2.02,3.96-2.02s2.933,0.68,3.96,2.04
			c1.027,1.347,1.54,3.054,1.54,5.12c0,2.054-0.513,3.767-1.54,5.14c-1.027,1.347-2.347,2.021-3.96,2.021s-2.933-0.674-3.96-2.021
			C81.422,171.977,80.909,170.264,80.909,168.21z M90.029,168.21c0-1.573-0.333-2.867-1-3.88c-0.653-1.014-1.527-1.521-2.62-1.521
			s-1.967,0.507-2.62,1.521c-0.667,1.013-1,2.307-1,3.88s0.333,2.873,1,3.899c0.653,1,1.527,1.5,2.62,1.5s1.967-0.506,2.62-1.52
			C89.695,171.063,90.029,169.77,90.029,168.21z"/>
		<path fill="#E6E6E5" d="M98.588,161.37v13.68h-1.84v-11.4l-2.66,1.16l-0.699-1.56l4.02-1.88H98.588z"/>
		<path fill="#E6E6E5" d="M106.268,166.37c1.107,0,2.094,0.439,2.961,1.319c0.88,0.867,1.32,1.9,1.32,3.101
			c0,1.227-0.468,2.3-1.4,3.22c-0.947,0.907-2.04,1.36-3.28,1.36c-1.319,0-2.434-0.453-3.34-1.36c-0.907-0.906-1.36-1.979-1.36-3.22
			c0-1.106,0.447-2.367,1.34-3.78l3.98-5.96l1.48,1.02l-3.381,4.681l0.04,0.04C105.041,166.51,105.588,166.37,106.268,166.37z
			 M103.028,170.81c0,0.787,0.272,1.454,0.819,2c0.547,0.533,1.221,0.8,2.021,0.8s1.467-0.267,2-0.8
			c0.546-0.546,0.819-1.213,0.819-2c0-0.772-0.279-1.433-0.84-1.979c-0.547-0.547-1.207-0.82-1.979-0.82c-0.76,0-1.427,0.273-2,0.82
			C103.309,169.377,103.028,170.037,103.028,170.81z"/>
		<path fill="#E6E6E5" d="M119.027,169.25v5.8h-1.84v-14.32h4.88c1.24,0,2.294,0.414,3.16,1.24c0.88,0.827,1.319,1.834,1.319,3.021
			c0,1.213-0.439,2.227-1.319,3.04c-0.854,0.812-1.907,1.22-3.16,1.22H119.027z M119.027,162.49v5h3.08
			c0.733,0,1.34-0.247,1.82-0.74c0.493-0.493,0.74-1.08,0.74-1.76c0-0.667-0.247-1.247-0.74-1.74c-0.48-0.507-1.087-0.76-1.82-0.76
			H119.027z"/>
		<path fill="#E6E6E5" d="M129.987,175.05h-1.84v-9.8h1.76v1.6h0.08c0.187-0.52,0.569-0.963,1.149-1.33
			c0.58-0.366,1.15-0.55,1.711-0.55c0.533,0,0.986,0.08,1.359,0.24l-0.56,1.78c-0.228-0.094-0.587-0.141-1.08-0.141
			c-0.693,0-1.297,0.28-1.81,0.84c-0.514,0.561-0.771,1.214-0.771,1.96V175.05z"/>
		<path fill="#E6E6E5" d="M138.728,164.93c1.36,0,2.433,0.363,3.22,1.09c0.787,0.728,1.181,1.724,1.181,2.99v6.04h-1.761v-1.36
			h-0.08c-0.76,1.12-1.773,1.681-3.039,1.681c-1.08,0-1.984-0.32-2.711-0.96c-0.727-0.641-1.09-1.44-1.09-2.4
			c0-1.013,0.384-1.82,1.15-2.42s1.79-0.9,3.07-0.9c1.093,0,1.992,0.2,2.699,0.601v-0.42c0-0.641-0.253-1.184-0.76-1.63
			c-0.507-0.447-1.1-0.671-1.779-0.671c-1.027,0-1.84,0.434-2.44,1.301l-1.62-1.021C135.66,165.569,136.98,164.93,138.728,164.93z
			 M136.348,172.05c0,0.48,0.203,0.88,0.609,1.2c0.407,0.319,0.884,0.479,1.431,0.479c0.772,0,1.463-0.286,2.069-0.859
			c0.607-0.573,0.91-1.247,0.91-2.021c-0.572-0.453-1.373-0.68-2.399-0.68c-0.747,0-1.37,0.18-1.87,0.54
			C136.598,171.069,136.348,171.517,136.348,172.05z"/>
		<path fill="#E6E6E5" d="M145.207,160.729h1.84v4.521l-0.08,1.359h0.08c0.281-0.479,0.711-0.88,1.291-1.199
			c0.58-0.32,1.183-0.48,1.81-0.48c1.2,0,2.123,0.344,2.771,1.03c0.646,0.687,0.969,1.663,0.969,2.93v6.16h-1.84v-5.8
			c0-1.76-0.779-2.641-2.34-2.641c-0.746,0-1.377,0.311-1.89,0.931s-0.771,1.343-0.771,2.17v5.34h-1.84V160.729z"/>
		<path fill="#E6E6E5" d="M159.668,164.93c1.359,0,2.433,0.363,3.22,1.09c0.786,0.728,1.181,1.724,1.181,2.99v6.04h-1.761v-1.36
			h-0.08c-0.76,1.12-1.773,1.681-3.04,1.681c-1.08,0-1.983-0.32-2.71-0.96c-0.727-0.641-1.09-1.44-1.09-2.4
			c0-1.013,0.384-1.82,1.149-2.42c0.768-0.6,1.791-0.9,3.07-0.9c1.094,0,1.993,0.2,2.7,0.601v-0.42c0-0.641-0.253-1.184-0.76-1.63
			c-0.507-0.447-1.101-0.671-1.78-0.671c-1.027,0-1.84,0.434-2.439,1.301l-1.621-1.021
			C156.601,165.569,157.921,164.93,159.668,164.93z M157.287,172.05c0,0.48,0.203,0.88,0.61,1.2
			c0.407,0.319,0.884,0.479,1.431,0.479c0.772,0,1.463-0.286,2.069-0.859s0.91-1.247,0.91-2.021c-0.573-0.453-1.374-0.68-2.399-0.68
			c-0.748,0-1.371,0.18-1.871,0.54C157.537,171.069,157.287,171.517,157.287,172.05z"/>
	</g>
	<g>
		<path fill="#EC174F" d="M21.745,175.854l0.008,0.01c2.232,0,4.477-0.846,6.19-2.559l7.864,7.854l0,0
			c7.758-7.76,7.758-20.344,0-28.107l-7.876,7.875h-0.004c3.404,3.414,3.418,8.95,0,12.365
			C26.204,175.01,24.002,175.85,21.745,175.854z"/>
		<g>
			<g>
				<defs>
					<path id="SVGID_5_" d="M21.752,186.982l-0.008-11.129c2.258-0.006,4.459-0.845,6.183-2.562l0,0
						c3.418-3.415,3.404-8.951,0-12.365l0,0h0.004l7.876-7.875c7.758,7.764,7.758,20.348,0,28.107l0,0
						C31.928,185.036,26.815,186.99,21.752,186.982L21.752,186.982z"/>
				</defs>
				<clipPath id="SVGID_6_">
					<use xlink:href="#SVGID_5_"  overflow="visible"/>
				</clipPath>
				<path opacity="0.43" clip-path="url(#SVGID_6_)" fill="#4AA848" enable-background="new    " d="M62.883,155.379l-10.59-3.443
					c-0.703,2.14-2.186,3.978-4.358,5.078l0,0c-4.304,2.187-9.552,0.467-11.751-3.824l0,0h-0.007l-9.923,5.043
					c5.861,11.498,15.929,14.192,26.731,8.705l0,0C57.868,164.455,61.309,160.203,62.883,155.379L62.883,155.379z"/>
			</g>
		</g>
		<path fill="#FFC325" d="M56.053,132.82c-7.761-7.762-20.345-7.762-28.113,0l0,0l7.869,7.881c3.427-3.418,8.951-3.418,12.373-0.006
			l0,0c1.718,1.722,2.559,3.927,2.562,6.183l0,0l0,0h11.135C61.879,141.812,59.93,136.684,56.053,132.82L56.053,132.82z"/>
		<path fill="#0079C0" d="M7.704,181.176c7.764,7.762,20.346,7.771,28.111-0.004l0,0l-7.872-7.867
			c-3.421,3.414-8.953,3.404-12.37,0.002l0,0c-1.718-1.725-2.555-3.934-2.561-6.18l0,0l0,0H1.885
			C1.874,172.189,3.833,177.307,7.704,181.176L7.704,181.176z"/>
		<path fill="#48A842" d="M50.786,146.955c-0.015,2.271-0.86,4.461-2.584,6.178c-3.441,3.4-8.971,3.373-12.368-0.053l0,0
			c-7.735-7.793-20.312-7.846-28.114-0.119c-3.887,3.854-5.863,8.955-5.887,14.029l11.143,0.049
			c0.009-2.252,0.855-4.461,2.588-6.173c3.432-3.399,8.959-3.375,12.363,0.06l0.001-0.014l-0.001,0.014
			c7.736,7.786,20.311,7.842,28.105,0.113c3.898-3.844,5.867-8.957,5.891-14.031L50.786,146.955z"/>
		<path fill="#EC174F" d="M35.809,153.062h0.006c-3.408-3.422-3.408-8.953-0.006-12.361l-7.869-7.881
			c-3.979,3.979-5.9,9.227-5.802,14.44C27.102,147.354,32.03,149.275,35.809,153.062z"/>
	</g>
</g>
</svg>
